<svg width="48" height="48" viewBox="0 0 48 48" fill="none" xmlns="http://www.w3.org/2000/svg">
<path fill-rule="evenodd" clip-rule="evenodd" d="M33 6H15C10.0294 6 6 10.0294 6 15V33C6 37.9706 10.0294 42 15 42H33C37.9706 42 42 37.9706 42 33V15C42 10.0294 37.9706 6 33 6ZM32.9026 22.6798C33.1803 24.5524 32.8605 26.4648 31.9886 28.1451C31.1167 29.8254 29.7372 31.188 28.0463 32.0391C26.3554 32.8902 24.4392 33.1864 22.5702 32.8857C20.7012 32.5849 18.9746 31.7025 17.636 30.364C16.2975 29.0254 15.4151 27.2988 15.1143 25.4298C14.8136 23.5608 15.1098 21.6446 15.9609 19.9537C16.812 18.2628 18.1746 16.8833 19.8549 16.0114C21.5352 15.1395 23.4476 14.8197 25.3202 15.0974C27.2302 15.3806 28.9986 16.2706 30.364 17.636C31.7294 19.0014 32.6194 20.7698 32.9026 22.6798ZM35.7 16.8C37.1912 16.8 38.4 15.5912 38.4 14.1C38.4 12.6088 37.1912 11.4 35.7 11.4C34.2088 11.4 33 12.6088 33 14.1C33 15.5912 34.2088 16.8 35.7 16.8Z" fill="url(#paint0_linear_182_51)"/>
<path d="M31.9886 28.1451L31.101 27.6846L31.9886 28.1451ZM32.9026 22.6798L33.8918 22.5332V22.5332L32.9026 22.6798ZM28.0463 32.0391L27.5967 31.1459L28.0463 32.0391ZM22.5702 32.8857L22.729 31.8984L22.5702 32.8857ZM17.636 30.364L16.9289 31.0711L17.636 30.364ZM15.1143 25.4298L16.1016 25.271L15.1143 25.4298ZM15.9609 19.9537L16.8541 20.4033V20.4033L15.9609 19.9537ZM19.8549 16.0114L19.3943 15.1238V15.1238L19.8549 16.0114ZM25.3202 15.0974L25.4668 14.1082L25.3202 15.0974ZM30.364 17.636L31.0711 16.9289L31.0711 16.9289L30.364 17.636ZM15 7H33V5H15V7ZM7 15C7 10.5817 10.5817 7 15 7V5C9.47715 5 5 9.47715 5 15H7ZM7 33V15H5V33H7ZM15 41C10.5817 41 7 37.4183 7 33H5C5 38.5228 9.47715 43 15 43V41ZM33 41H15V43H33V41ZM41 33C41 37.4183 37.4183 41 33 41V43C38.5228 43 43 38.5228 43 33H41ZM41 15V33H43V15H41ZM33 7C37.4183 7 41 10.5817 41 15H43C43 9.47715 38.5228 5 33 5V7ZM32.8762 28.6057C33.845 26.7387 34.2004 24.6138 33.8918 22.5332L31.9135 22.8265C32.1603 24.491 31.876 26.191 31.101 27.6846L32.8762 28.6057ZM28.4959 32.9323C30.3747 31.9867 31.9075 30.4727 32.8762 28.6057L31.101 27.6846C30.326 29.1782 29.0998 30.3893 27.5967 31.1459L28.4959 32.9323ZM22.4113 33.873C24.488 34.2071 26.6171 33.878 28.4959 32.9323L27.5967 31.1459C26.0937 31.9024 24.3904 32.1657 22.729 31.8984L22.4113 33.873ZM16.9289 31.0711C18.4162 32.5584 20.3347 33.5388 22.4113 33.873L22.729 31.8984C21.0677 31.6311 19.533 30.8467 18.3432 29.6568L16.9289 31.0711ZM14.127 25.5887C14.4612 27.6653 15.4416 29.5838 16.9289 31.0711L18.3432 29.6568C17.1533 28.467 16.3689 26.9323 16.1016 25.271L14.127 25.5887ZM15.0677 19.5041C14.122 21.3829 13.7929 23.512 14.127 25.5887L16.1016 25.271C15.8343 23.6096 16.0976 21.9063 16.8541 20.4033L15.0677 19.5041ZM19.3943 15.1238C17.5273 16.0925 16.0133 17.6253 15.0677 19.5041L16.8541 20.4033C17.6107 18.9002 18.8218 17.674 20.3154 16.899L19.3943 15.1238ZM25.4668 14.1082C23.3862 13.7996 21.2613 14.155 19.3943 15.1238L20.3154 16.899C21.809 16.124 23.509 15.8397 25.1735 16.0865L25.4668 14.1082ZM31.0711 16.9289C29.554 15.4118 27.5891 14.4229 25.4668 14.1082L25.1735 16.0865C26.8713 16.3383 28.4432 17.1295 29.6569 18.3432L31.0711 16.9289ZM33.8918 22.5332C33.5771 20.4109 32.5882 18.446 31.0711 16.9289L29.6568 18.3432C30.8705 19.5568 31.6617 21.1287 31.9135 22.8265L33.8918 22.5332ZM37.4 14.1C37.4 15.0389 36.6389 15.8 35.7 15.8V17.8C37.7435 17.8 39.4 16.1435 39.4 14.1H37.4ZM35.7 12.4C36.6389 12.4 37.4 13.1611 37.4 14.1H39.4C39.4 12.0565 37.7435 10.4 35.7 10.4V12.4ZM34 14.1C34 13.1611 34.7611 12.4 35.7 12.4V10.4C33.6565 10.4 32 12.0565 32 14.1H34ZM35.7 15.8C34.7611 15.8 34 15.0389 34 14.1H32C32 16.1435 33.6565 17.8 35.7 17.8V15.8Z" fill="#D4203B"/>
<defs>
<linearGradient id="paint0_linear_182_51" x1="42" y1="6" x2="5.96852" y2="41.9685" gradientUnits="userSpaceOnUse">
<stop stop-color="#D4203B"/>
<stop offset="1" stop-color="#E83752" stop-opacity="0"/>
</linearGradient>
</defs>
</svg>
