<svg width="24" height="24" viewBox="0 0 24 24" fill="none" xmlns="http://www.w3.org/2000/svg">
<path d="M20.3089 17.708C22.1959 15.66 22.0059 13.03 21.9999 13V5C21.9999 4.73478 21.8946 4.48043 21.707 4.29289C21.5195 4.10536 21.2651 4 20.9999 4H14.9999C13.8969 4 12.9999 4.897 12.9999 6V13C12.9999 13.2652 13.1053 13.5196 13.2928 13.7071C13.4803 13.8946 13.7347 14 13.9999 14H17.0779C17.0568 14.4944 16.9091 14.9751 16.6489 15.396C16.1409 16.197 15.1839 16.744 13.8029 17.02L12.9999 17.18V20H13.9999C16.7829 20 18.9059 19.229 20.3089 17.708ZM9.30192 17.708C11.1899 15.66 10.9989 13.03 10.9929 13V5C10.9929 4.73478 10.8876 4.48043 10.7 4.29289C10.5125 4.10536 10.2581 4 9.99292 4H3.99292C2.88992 4 1.99292 4.897 1.99292 6V13C1.99292 13.2652 2.09828 13.5196 2.28581 13.7071C2.47335 13.8946 2.7277 14 2.99292 14H6.07092C6.04979 14.4944 5.90208 14.9751 5.64192 15.396C5.13392 16.197 4.17692 16.744 2.79592 17.02L1.99292 17.18V20H2.99292C5.77592 20 7.89892 19.229 9.30192 17.708Z" fill="#D4203B"/>
</svg>
