<svg width="280" height="280" viewBox="0 0 280 280" fill="none" xmlns="http://www.w3.org/2000/svg">
<rect width="280" height="280" rx="4" fill="url(#paint0_linear_22_2503)"/>
<g clip-path="url(#clip0_22_2503)">
<mask id="mask0_22_2503" style="mask-type:luminance" maskUnits="userSpaceOnUse" x="1" y="3" width="273" height="273">
<path d="M274 3H1V276H274V3Z" fill="white"/>
</mask>
<g mask="url(#mask0_22_2503)">
<path d="M182.431 182.157H90.5213C90.0187 182.157 89.6113 182.564 89.6113 183.067V183.798C89.6113 184.3 90.0187 184.708 90.5213 184.708H182.431C182.934 184.708 183.341 184.3 183.341 183.798V183.067C183.341 182.564 182.934 182.157 182.431 182.157Z" fill="#0A0909"/>
<path d="M91.1349 183.432H90.218C89.8829 183.432 89.6113 183.704 89.6113 184.039V193.987C89.6113 194.322 89.8829 194.593 90.218 194.593H91.1349C91.4699 194.593 91.7416 194.322 91.7416 193.987V184.039C91.7416 183.704 91.4699 183.432 91.1349 183.432Z" fill="#0A0909"/>
<path d="M182.735 183.432H181.818C181.483 183.432 181.211 183.704 181.211 184.039V193.987C181.211 194.322 181.483 194.593 181.818 194.593H182.735C183.07 194.593 183.341 194.322 183.341 193.987V184.039C183.341 183.704 183.07 183.432 182.735 183.432Z" fill="#0A0909"/>
<path d="M95.0912 183.432H94.7829C94.4479 183.432 94.1763 183.704 94.1763 184.039V193.987C94.1763 194.322 94.4479 194.593 94.7829 194.593H95.0912C95.4262 194.593 95.6979 194.322 95.6979 193.987V184.039C95.6979 183.704 95.4262 183.432 95.0912 183.432Z" fill="#0A0909"/>
<path d="M99.0472 183.432H98.739C98.4039 183.432 98.1323 183.704 98.1323 184.039V193.987C98.1323 194.322 98.4039 194.593 98.739 194.593H99.0472C99.3823 194.593 99.6539 194.322 99.6539 193.987V184.039C99.6539 183.704 99.3823 183.432 99.0472 183.432Z" fill="#0A0909"/>
<path d="M103.003 183.432H102.695C102.36 183.432 102.088 183.704 102.088 184.039V193.987C102.088 194.322 102.36 194.593 102.695 194.593H103.003C103.338 194.593 103.61 194.322 103.61 193.987V184.039C103.61 183.704 103.338 183.432 103.003 183.432Z" fill="#0A0909"/>
<path d="M106.044 184.039C106.044 183.704 106.316 183.432 106.651 183.432H106.96C107.294 183.432 107.566 183.704 107.566 184.039V193.987C107.566 194.322 107.294 194.593 106.96 194.593H106.651C106.316 194.593 106.044 194.322 106.044 193.987V184.039Z" fill="#0A0909"/>
<path d="M110.916 183.432H110.608C110.273 183.432 110.001 183.704 110.001 184.039V193.987C110.001 194.322 110.273 194.593 110.608 194.593H110.916C111.251 194.593 111.523 194.322 111.523 193.987V184.039C111.523 183.704 111.251 183.432 110.916 183.432Z" fill="#0A0909"/>
<path d="M114.872 183.432H114.564C114.229 183.432 113.957 183.704 113.957 184.039V193.987C113.957 194.322 114.229 194.593 114.564 194.593H114.872C115.207 194.593 115.479 194.322 115.479 193.987V184.039C115.479 183.704 115.207 183.432 114.872 183.432Z" fill="#0A0909"/>
<path d="M118.828 183.432H118.52C118.185 183.432 117.913 183.704 117.913 184.039V193.987C117.913 194.322 118.185 194.593 118.52 194.593H118.828C119.163 194.593 119.435 194.322 119.435 193.987V184.039C119.435 183.704 119.163 183.432 118.828 183.432Z" fill="#0A0909"/>
<path d="M122.784 183.432H122.476C122.141 183.432 121.869 183.704 121.869 184.039V193.987C121.869 194.322 122.141 194.593 122.476 194.593H122.784C123.119 194.593 123.391 194.322 123.391 193.987V184.039C123.391 183.704 123.119 183.432 122.784 183.432Z" fill="#0A0909"/>
<path d="M126.74 183.432H126.432C126.097 183.432 125.825 183.704 125.825 184.039V193.987C125.825 194.322 126.097 194.593 126.432 194.593H126.74C127.075 194.593 127.347 194.322 127.347 193.987V184.039C127.347 183.704 127.075 183.432 126.74 183.432Z" fill="#0A0909"/>
<path d="M130.696 183.432H130.388C130.053 183.432 129.781 183.704 129.781 184.039V193.987C129.781 194.322 130.053 194.593 130.388 194.593H130.696C131.031 194.593 131.303 194.322 131.303 193.987V184.039C131.303 183.704 131.031 183.432 130.696 183.432Z" fill="#0A0909"/>
<path d="M134.652 183.432H134.344C134.009 183.432 133.738 183.704 133.738 184.039V193.987C133.738 194.322 134.009 194.593 134.344 194.593H134.652C134.988 194.593 135.259 194.322 135.259 193.987V184.039C135.259 183.704 134.988 183.432 134.652 183.432Z" fill="#0A0909"/>
<path d="M138.609 183.432H138.3C137.965 183.432 137.694 183.704 137.694 184.039V193.987C137.694 194.322 137.965 194.593 138.3 194.593H138.609C138.944 194.593 139.215 194.322 139.215 193.987V184.039C139.215 183.704 138.944 183.432 138.609 183.432Z" fill="#0A0909"/>
<path d="M142.565 183.432H142.257C141.922 183.432 141.65 183.704 141.65 184.039V193.987C141.65 194.322 141.922 194.593 142.257 194.593H142.565C142.9 194.593 143.171 194.322 143.171 193.987V184.039C143.171 183.704 142.9 183.432 142.565 183.432Z" fill="#0A0909"/>
<path d="M146.521 183.432H146.213C145.878 183.432 145.606 183.704 145.606 184.039V193.987C145.606 194.322 145.878 194.593 146.213 194.593H146.521C146.856 194.593 147.128 194.322 147.128 193.987V184.039C147.128 183.704 146.856 183.432 146.521 183.432Z" fill="#0A0909"/>
<path d="M150.477 183.432H150.169C149.834 183.432 149.562 183.704 149.562 184.039V193.987C149.562 194.322 149.834 194.593 150.169 194.593H150.477C150.812 194.593 151.084 194.322 151.084 193.987V184.039C151.084 183.704 150.812 183.432 150.477 183.432Z" fill="#0A0909"/>
<path d="M154.433 183.432H154.125C153.79 183.432 153.518 183.704 153.518 184.039V193.987C153.518 194.322 153.79 194.593 154.125 194.593H154.433C154.768 194.593 155.04 194.322 155.04 193.987V184.039C155.04 183.704 154.768 183.432 154.433 183.432Z" fill="#0A0909"/>
<path d="M158.389 183.432H158.081C157.746 183.432 157.474 183.704 157.474 184.039V193.987C157.474 194.322 157.746 194.593 158.081 194.593H158.389C158.724 194.593 158.996 194.322 158.996 193.987V184.039C158.996 183.704 158.724 183.432 158.389 183.432Z" fill="#0A0909"/>
<path d="M162.345 183.432H162.037C161.702 183.432 161.43 183.704 161.43 184.039V193.987C161.43 194.322 161.702 194.593 162.037 194.593H162.345C162.68 194.593 162.952 194.322 162.952 193.987V184.039C162.952 183.704 162.68 183.432 162.345 183.432Z" fill="#0A0909"/>
<path d="M166.301 183.432H165.993C165.658 183.432 165.386 183.704 165.386 184.039V193.987C165.386 194.322 165.658 194.593 165.993 194.593H166.301C166.636 194.593 166.908 194.322 166.908 193.987V184.039C166.908 183.704 166.636 183.432 166.301 183.432Z" fill="#0A0909"/>
<path d="M170.258 183.432H169.95C169.615 183.432 169.343 183.704 169.343 184.039V193.987C169.343 194.322 169.615 194.593 169.95 194.593H170.258C170.593 194.593 170.865 194.322 170.865 193.987V184.039C170.865 183.704 170.593 183.432 170.258 183.432Z" fill="#0A0909"/>
<path d="M174.214 183.432H173.906C173.571 183.432 173.299 183.704 173.299 184.039V193.987C173.299 194.322 173.571 194.593 173.906 194.593H174.214C174.549 194.593 174.821 194.322 174.821 193.987V184.039C174.821 183.704 174.549 183.432 174.214 183.432Z" fill="#0A0909"/>
<path d="M178.17 183.432H177.862C177.527 183.432 177.255 183.704 177.255 184.039V193.987C177.255 194.322 177.527 194.593 177.862 194.593H178.17C178.505 194.593 178.777 194.322 178.777 193.987V184.039C178.777 183.704 178.505 183.432 178.17 183.432Z" fill="#0A0909"/>
<path d="M70.1344 156.549C66.4386 154.113 62.4692 152.934 58.1818 152.856C56.1268 152.818 54.0662 152.933 52.0148 152.836C43.9194 152.454 36.8123 149.638 31.1284 143.68C28.5703 140.999 26.8589 137.823 27.1588 133.892C27.2011 133.337 26.9432 132.459 27.7877 132.426C28.6131 132.394 28.4851 133.245 28.5355 133.83C28.7638 136.477 30.1008 138.597 31.7976 140.477C35.0099 144.036 39.0649 146.141 43.59 147.569C46.0079 148.333 48.5152 148.258 50.9185 148.946C52.5771 149.42 54.1581 148.535 55.7722 148.291C63.5069 147.119 72.2286 150.871 76.1276 157.914C77.2081 159.866 77.9194 161.947 78.4497 164.099C79.3029 167.561 81.1824 170.452 83.3388 173.189C83.6282 173.557 84.1123 173.725 85.1294 174.009C85.4988 172.534 84.6283 171.336 84.1484 170.148C80.8393 161.951 76.2396 154.505 70.9601 147.472C67.9216 143.424 64.5928 139.652 60.7511 136.36C60.4253 136.081 59.8778 135.828 60.1505 135.281C60.4399 134.7 60.9953 134.931 61.4903 135.018C65.6514 135.752 69.2729 137.677 72.5965 140.28C73.798 137.202 75.7224 135.665 77.9228 135.949C80.2882 136.255 82.5783 138.353 82.5507 140.62C82.5116 143.824 80.6139 145.452 77.351 145.547C78.0966 147.688 79.6363 148.974 80.9773 150.325C83.2505 152.615 85.8586 154.413 89.0688 155.259C93.3103 156.378 97.6082 154.424 99.2571 150.229C100.247 147.711 100.851 145.059 100.866 142.301C100.873 141.11 100.451 140.448 99.2796 140.095C96.5756 139.28 94.7869 136.3 95.271 133.609C95.8122 130.601 98.3747 128.519 101.35 128.67C105.347 128.872 107.782 133.464 105.894 137.237C104.821 139.38 104.855 139.349 106.491 141.132C109.049 143.92 111.984 146.189 115.607 147.248C119.831 148.483 123.668 147.448 127.035 144.58C130.375 141.734 132.531 138.068 134.19 134.061C134.593 133.089 134.874 132.066 135.214 131.067C135.377 130.59 135.497 129.978 136.076 129.941C136.704 129.901 136.947 130.444 137.179 130.992C138.885 135.007 141.117 138.676 144.06 141.908C146.769 144.883 150.009 147.048 153.855 147.957C156.785 148.649 159.711 147.94 162.369 146.41C164.669 145.085 166.512 143.25 168.125 141.145C168.875 140.166 168.94 139.357 168.12 138.329C166.13 135.834 166.454 132.16 167.86 130.285C169.171 128.536 170.97 127.694 172.908 127.887C175.705 128.165 177.813 129.805 178.675 132.65C179.824 136.44 178.313 139.314 174.525 140.758C174.092 140.923 173.618 141.127 173.624 141.659C173.639 143.114 173.385 144.565 173.844 146.026C174.383 147.744 174.671 149.537 175.506 151.165C178.031 156.081 182.815 157.347 187.589 154.788C191.24 152.832 193.765 149.726 195.995 146C193.423 144.897 191.635 143.163 191.827 140.223C191.925 138.725 192.75 137.45 193.974 136.536C196.302 134.799 198.915 135.993 201.358 139.952C204.681 137.633 208.043 135.357 212.304 135.328C200.491 145.613 193.141 158.568 188.369 173.304C189.394 173.661 189.681 173.218 189.996 172.832C192.602 169.629 194.277 166.014 195.41 161.998C196.872 156.815 200.213 153.023 204.992 150.501C209.982 147.868 215.23 147.58 220.597 148.577C222.552 148.94 224.416 148.543 226.265 148.336C232.513 147.634 238.118 145.285 242.63 140.711C244.565 138.749 246.032 136.473 246.336 133.6C246.386 133.133 246.349 132.403 247.02 132.433C247.86 132.47 247.526 133.265 247.579 133.755C248.103 138.622 245.581 142.101 242.255 145.05C237.763 149.033 232.447 151.252 226.566 152.382C222.459 153.172 218.365 152.46 214.296 152.873C206.898 153.624 200.629 156.339 197.437 163.768C196.711 165.46 196.379 167.314 195.636 169.023C194.694 171.19 193.33 173.038 191.703 174.7C190.052 176.387 188.078 177.216 185.674 177.214C153.581 177.197 121.488 177.219 89.3948 177.218C87.8575 177.218 86.3206 177.526 84.7811 176.973C81.6647 175.855 79.9554 173.303 78.3738 170.65C77.2915 168.834 76.7431 166.771 76.1756 164.737C75.2067 161.265 73.1343 158.626 70.1344 156.549Z" fill="#0A0909"/>
<path d="M159.032 86.654C160.406 87.3659 159.724 88.362 159.263 89.0943C158.354 90.5381 157.248 91.8582 156.222 93.2281C151.232 99.8866 146.246 106.547 141.246 113.197C140.804 113.785 140.36 114.296 140.917 115.064C143.517 118.647 146.1 122.241 148.687 125.832C148.835 126.038 148.965 126.256 149.119 126.491C150.541 125.704 151.452 124.569 152.85 123.998C155.889 122.756 158.247 123.909 160.419 125.761C163.779 128.624 163.836 135.865 159.91 138.488C156.033 141.079 150.636 139.662 149.047 135.139C147.582 130.971 145.15 127.485 142.923 123.81C142.297 122.776 141.525 122.314 140.331 122.373C139.061 122.436 137.855 122.45 137.149 120.953C136.8 120.213 135.833 120.042 135.304 120.938C134.793 121.804 134.068 121.946 133.245 121.829C131.775 121.621 130.863 122.342 130.117 123.478C127.277 127.806 124.105 131.906 121.558 136.441C119.963 139.28 116.975 140.323 113.895 139.37C111.835 138.733 110.633 136.972 110.248 135.049C109.522 131.432 109.89 127.944 113.168 125.177C115.45 123.251 119.433 123.307 121.403 125.734C121.739 126.148 121.943 126.712 122.672 126.972C124.535 124.39 126.419 121.789 128.293 119.18C129.088 118.075 129.809 116.913 130.659 115.853C131.441 114.878 131.484 114.078 130.715 113.028C125.505 105.907 120.347 98.7488 115.175 91.6004C114.291 90.3771 113.387 89.1656 112.557 87.9055C112.197 87.3583 111.909 86.5851 112.579 86.1365C113.2 85.7212 113.689 86.3449 114.092 86.7902C119.938 93.2515 125.775 99.7222 131.625 106.18C132.739 107.41 133.896 108.602 135.044 109.801C136.109 110.912 136.727 110.933 137.797 109.765C142.261 104.892 146.664 99.9597 151.166 95.1206C153.768 92.323 156.095 89.2702 159.032 86.654ZM156.082 136.465C156.275 136.408 156.466 136.34 156.663 136.297C159.226 135.741 160.599 133.595 160.13 130.855C159.833 129.114 157.734 126.928 155.061 127.305C153.051 127.589 151.101 130.072 151.269 132.245C151.432 134.372 153.166 135.982 156.082 136.465ZM116.457 136.186C118.744 135.776 120.456 133.974 120.709 131.71C120.873 130.245 119.456 127.743 118.239 127.351C116.5 126.792 115.018 127.426 113.876 129.169C112.564 131.172 112.735 135.069 116.457 136.186ZM135.2 115.306C135.17 115.829 135.132 116.422 135.897 116.317C136.331 116.258 136.585 115.812 136.443 115.385C136.232 114.752 135.786 114.687 135.2 115.306Z" fill="#0A0909"/>
<path d="M211.562 156.58C216.842 156.18 222.018 156.321 227.124 155.865C233.223 155.32 239.023 153.361 244.058 149.634C244.996 148.94 245.774 148.081 246.515 147.178C246.846 146.773 247.029 146.154 247.815 146.094C248.591 146.861 248.362 147.8 248.07 148.693C246.812 152.532 243.814 154.723 240.442 156.458C234.798 159.362 228.72 160.036 222.517 159.343C219.822 159.042 217.153 158.317 214.427 158.498C210.476 158.76 206.444 158.79 202.925 161.063C202.785 161.153 202.556 161.105 202.309 161.126C201.929 159.944 202.852 159.531 203.478 159.089C205.846 157.415 208.511 156.596 211.562 156.58Z" fill="#0A0909"/>
<path d="M68.6699 158.131C69.6385 158.691 70.5163 159.197 71.2076 159.946C71.4679 160.228 71.8716 160.555 71.5528 160.988C71.2291 161.428 70.84 161.154 70.4899 160.935C68.1612 159.476 65.5386 159.242 62.8884 158.815C58.0757 158.038 53.459 159.524 48.7546 159.543C40.8624 159.573 33.5254 157.859 28.3555 151.162C27.2798 149.769 26.6163 148.133 27.2424 146.267C27.957 146.203 28.1904 146.698 28.474 147.082C30.914 150.383 34.3878 152.127 38.0824 153.593C40.4763 154.543 42.923 155.301 45.4561 155.663C48.78 156.137 52.1034 156.508 55.4964 156.512C59.3457 156.516 63.2788 156.105 67.0519 157.44C67.5788 157.627 68.0545 157.887 68.6699 158.131Z" fill="#0A0909"/>
<path d="M235.236 163.411C236.673 163.015 237.93 162.523 239.105 161.821C239.475 161.601 239.884 161.2 240.318 161.663C240.747 162.12 240.31 162.553 240.102 162.891C238.627 165.292 236.207 166.243 233.671 167.031C231.938 167.57 230.166 167.304 228.411 167.415C223.709 167.714 219.251 166.761 214.811 165.232C211.102 163.955 207.144 164.338 203.27 164.365C202.737 164.369 202.155 164.569 201.592 163.98C202.532 162.969 203.886 162.841 205.014 162.735C207.702 162.482 210.343 161.785 213.095 162.005C215.146 162.168 217.169 162.54 219.18 162.851C222.85 163.418 226.472 164.243 230.22 164.164C231.889 164.129 233.432 163.327 235.236 163.411Z" fill="#0A0909"/>
<path d="M51.3005 167.378C48.5341 167.387 45.9021 167.517 43.288 167.357C40.5198 167.188 37.9878 166.189 35.9267 164.265C35.2606 163.644 34.5007 162.957 34.741 161.763C35.9594 161.477 36.6274 162.566 37.585 162.874C41.768 164.221 45.9382 164.469 50.308 163.779C52.7247 163.397 55.0925 162.607 57.5801 162.633C59.3389 162.652 60.9857 161.77 62.7972 162.021C65.5611 162.403 68.3363 162.708 71.0481 163.391C71.3685 163.472 71.7461 163.556 71.9475 163.94C71.8756 164.559 71.3921 164.574 70.9486 164.502C69.2903 164.236 67.6193 164.32 65.963 164.387C62.755 164.518 59.5967 165.054 56.55 166.087C54.8765 166.654 53.17 167.043 51.3005 167.378Z" fill="#0A0909"/>
<path d="M225.954 171.098C227.626 170.856 229.109 170.153 230.905 170.327C230.304 171.766 229.135 172.082 228.119 172.506C227.242 172.873 226.288 173.158 225.346 173.244C221.221 173.623 217.061 174.009 213.264 171.778C209.792 169.738 206.131 168.316 202.091 167.976C201.599 167.935 201.15 167.802 201.152 167.216C201.153 166.536 201.741 166.688 202.156 166.582C207.03 165.337 211.515 166.51 215.777 168.849C218.923 170.576 222.328 171.004 225.954 171.098Z" fill="#0A0909"/>
<path d="M51.7239 173.462C48.8037 173.159 45.959 173.035 43.8745 170.685C44.3705 170.186 44.7275 170.2 45.0666 170.321C50.1559 172.137 54.9031 170.974 59.377 168.453C63.3282 166.227 67.4778 166.042 71.7903 166.629C72.2119 166.687 72.6153 166.793 72.6266 167.318C72.6384 167.874 72.2022 167.928 71.7921 167.979C67.4766 168.518 63.6161 170.209 59.8617 172.355C57.4375 173.741 54.6019 173.549 51.7239 173.462Z" fill="#0A0909"/>
<path d="M202.459 170.906C204.355 171.732 206.175 172.449 207.934 173.289C211.214 174.856 214.753 174.797 218.244 175.063C218.73 175.1 219.281 174.932 219.58 175.58C219.392 176.248 218.859 176.465 218.221 176.483C214.449 176.586 210.679 176.845 206.934 176.016C204.016 175.369 201.689 173.787 199.583 171.779C199.244 171.455 199.051 171.07 198.979 170.593C198.838 169.652 199.306 169.492 200.033 169.778C200.826 170.089 201.583 170.49 202.459 170.906Z" fill="#0A0909"/>
<path d="M71.5094 174.104C67.0474 176.878 56.4975 177.813 54.7051 175.387C58.2383 174.859 61.7952 175.169 65.0351 173.769C68.1901 172.406 71.3359 171.021 74.4964 169.641C74.9908 171.113 74.5473 171.757 71.5094 174.104Z" fill="#0A0909"/>
<path d="M207.145 179.078C204.457 179.945 202.086 179.276 199.769 178.158C197.736 177.177 197.579 175.055 196.81 173.308C196.7 173.058 196.814 172.812 197.103 172.711C197.583 172.544 197.706 172.962 197.899 173.227C199.063 174.829 200.325 176.311 202.301 176.95C203.722 177.409 205.114 177.996 206.668 177.827C207.053 177.786 207.498 177.785 207.703 178.254C207.9 178.704 207.614 178.893 207.145 179.078Z" fill="#0A0909"/>
<path d="M66.7224 179.144C65.4293 177.978 66.757 177.994 67.2475 177.893C68.3161 177.672 69.399 177.676 70.4965 177.382C72.702 176.791 74.2414 175.515 75.4593 173.7C75.7074 173.331 75.9183 172.921 76.6702 172.661C76.7782 174.634 76.1018 176.368 74.8821 177.458C72.6328 179.467 69.8185 180.022 66.7224 179.144Z" fill="#0A0909"/>
<path d="M196.491 177.816C197.144 178.345 198.536 178.487 198.041 179.37C197.558 180.231 196.402 179.549 195.626 179.181C194.45 178.625 193.843 177.603 193.656 176.326C193.595 175.906 193.59 175.489 194.062 175.306C194.555 175.114 194.892 175.527 195.033 175.828C195.378 176.564 195.715 177.276 196.491 177.816Z" fill="#0A0909"/>
<path d="M76.8408 179.693C76.2572 180.041 75.7861 180.177 75.5019 179.515C75.2804 178.999 75.6845 178.808 76.0458 178.609C77.1229 178.015 78.0308 177.274 78.4573 176.051C78.5895 175.672 78.8834 175.368 79.3621 175.414C80.1677 177.36 79.3105 178.843 76.8408 179.693Z" fill="#0A0909"/>
<path d="M191.86 177.906C192.237 178.411 192.413 178.848 192.098 179.349C190.853 178.916 190.564 178.378 190.807 176.965C191.532 176.794 191.554 177.435 191.86 177.906Z" fill="#0A0909"/>
<path d="M81.3419 178.463C81.7401 177.915 81.6731 177.178 82.3677 176.96C82.83 177.935 82.6899 178.799 81.9112 179.205C81.1696 179.591 81.0185 179.233 81.3419 178.463Z" fill="#0A0909"/>
</g>
</g>
<defs>
<linearGradient id="paint0_linear_22_2503" x1="280" y1="1.66893e-05" x2="-0.243052" y2="279.757" gradientUnits="userSpaceOnUse">
<stop stop-color="#E83752"/>
<stop offset="1" stop-color="#D4203B"/>
</linearGradient>
<clipPath id="clip0_22_2503">
<rect width="273" height="273" fill="white" transform="translate(1 3)"/>
</clipPath>
</defs>
</svg>
