<svg width="196" height="164" viewBox="0 0 196 164" fill="none" xmlns="http://www.w3.org/2000/svg">
<path d="M21.0093 117.679L20.948 125.112L21.1322 144.739V146.152H2.36545L2.58044 123.331L2.33472 104.226H34.8924C36.3667 104.226 37.196 104.257 37.3804 104.318C37.8513 104.441 38.0868 104.789 38.0868 105.362C38.0868 106.079 37.6363 106.437 36.7353 106.437H36.5204L21.1322 106.222L21.0093 115.744L24.3572 115.775L35.1076 115.591L37.4725 115.56C38.3326 115.56 38.8958 115.632 39.1618 115.775C39.4485 115.918 39.592 116.205 39.592 116.635C39.592 117.433 38.9161 117.833 37.5646 117.833L35.1381 117.771L21.0093 117.679ZM53.9049 130.364V139.886C53.9049 141.729 54.0176 142.896 54.2427 143.387C54.6729 144.329 55.6866 144.8 57.2835 144.8C59.6589 144.8 62.0035 144.155 64.3173 142.865C66.6517 141.555 68.6686 139.753 70.3681 137.459C70.9211 136.702 71.3202 136.221 71.566 136.016C71.8117 135.811 72.078 135.709 72.3647 135.709C72.7127 135.709 72.9994 135.842 73.2248 136.108C73.4499 136.354 73.5626 136.671 73.5626 137.06C73.5626 137.92 72.8765 139.077 71.5047 140.531C69.7027 142.394 67.4606 143.91 64.778 145.077C62.1162 146.244 59.5157 146.827 56.9765 146.827C52.615 146.827 48.7653 145.363 45.4276 142.435C43.4824 140.715 41.9877 138.596 40.9432 136.077C40.0219 133.866 39.5612 131.654 39.5612 129.443C39.5612 127.313 39.9707 125.184 40.7898 123.054C41.6089 120.904 42.735 119.051 44.1684 117.495C45.827 115.672 47.7928 114.259 50.0656 113.256C52.2975 112.273 54.6319 111.782 57.0686 111.782C60.8568 111.782 64.2865 112.898 67.3581 115.13C72.1495 118.611 74.5249 123.658 74.4839 130.272H67.3273L58.1128 130.303L53.9049 130.364ZM61.7679 128.337V119.368C61.727 117.444 61.686 116.297 61.6451 115.928C61.6041 115.539 61.4609 115.181 61.2152 114.853C60.6418 114.055 59.4747 113.656 57.7137 113.656C55.9117 113.656 54.7856 114.116 54.3351 115.038C54.0484 115.591 53.9049 117.034 53.9049 119.368V128.337L57.6521 128.46L61.7679 128.337ZM94.9708 104.226L95.0016 105.793L94.94 116.604L94.9092 121.273L94.848 129.781L94.9708 144.954V146.152H79.3061V144.708L79.3677 139.824L79.3982 130.978L79.4598 119.399L79.429 113.164L79.3369 106.314L79.3677 104.226H94.9708ZM117.823 104.226L117.853 105.793L117.792 116.604L117.761 121.273L117.7 129.781L117.823 144.954V146.152H102.158V144.708L102.22 139.824L102.25 130.978L102.312 119.399L102.281 113.164L102.189 106.314L102.22 104.226H117.823ZM146.787 125.696V121.948C146.766 119.348 146.725 117.751 146.664 117.157C146.602 116.563 146.418 116.031 146.111 115.56C145.374 114.413 143.654 113.84 140.951 113.84C136.774 113.84 133.549 115.15 131.276 117.771C130.354 118.836 129.576 119.368 128.941 119.368C128.471 119.368 128.061 119.204 127.713 118.877C127.365 118.549 127.191 118.17 127.191 117.741C127.191 116.451 128.716 115.119 131.767 113.748C134.675 112.437 138.432 111.782 143.039 111.782C150.616 111.782 155.96 112.929 159.073 115.222C160.424 116.225 161.305 117.351 161.714 118.601C162.124 119.85 162.328 122.051 162.328 125.204V137.398C162.247 139.65 162.308 141.35 162.513 142.497C162.738 143.623 163.229 144.841 163.987 146.152H146.787V142.927C144.903 144.217 143.029 145.189 141.166 145.845C139.323 146.5 137.501 146.827 135.699 146.827C132.648 146.827 129.935 145.937 127.559 144.155C124.467 141.821 122.921 138.79 122.921 135.064C122.921 131.767 124.17 129.105 126.669 127.078C129.576 124.682 133.18 123.484 137.48 123.484C139.241 123.484 140.797 123.648 142.149 123.976C143.5 124.283 145.046 124.856 146.787 125.696ZM146.817 127.907C144.238 126.617 142.241 125.972 140.828 125.972C139.64 125.972 138.862 126.443 138.494 127.385C138.289 127.897 138.187 129.382 138.187 131.839V139.18C138.207 140.797 138.258 141.78 138.34 142.128C138.545 143.07 139.241 143.541 140.429 143.541C141.371 143.541 142.415 143.265 143.562 142.712C144.729 142.138 145.794 141.391 146.756 140.469L146.817 127.907ZM168.748 140.469C169.157 140.469 169.68 140.777 170.314 141.391C171.338 142.353 172.792 143.183 174.676 143.879C176.56 144.555 178.321 144.892 179.959 144.892C180.717 144.892 181.279 144.769 181.648 144.524C182.037 144.258 182.232 143.879 182.232 143.387C182.232 142.896 181.966 142.312 181.433 141.637C180.921 140.94 179.764 139.62 177.962 137.674C173.56 132.965 170.703 129.658 169.393 127.754C168.103 125.829 167.458 123.986 167.458 122.225C167.458 120.689 167.898 119.225 168.779 117.833C169.68 116.42 170.929 115.222 172.526 114.239C175.167 112.601 178.198 111.782 181.617 111.782C184.136 111.782 186.798 112.314 189.603 113.379C191.794 114.218 192.89 115.13 192.89 116.113C192.89 116.42 192.757 116.696 192.491 116.942C192.245 117.188 191.958 117.31 191.631 117.31C191.241 117.31 190.515 116.932 189.45 116.174C187.279 114.618 184.914 113.84 182.354 113.84C181.454 113.84 180.768 113.983 180.297 114.27C179.846 114.557 179.621 114.997 179.621 115.591C179.621 116.287 180.041 117.167 180.88 118.232C181.74 119.297 183.471 121.099 186.071 123.638C188.61 126.115 190.217 127.743 190.893 128.521C191.59 129.279 192.255 130.16 192.89 131.163C193.975 132.883 194.518 134.746 194.518 136.753C194.518 139.906 192.992 142.456 189.941 144.401C187.443 146.019 184.371 146.827 180.727 146.827C176.672 146.827 173.079 145.927 169.946 144.125C169.024 143.572 168.389 143.121 168.042 142.773C167.714 142.425 167.55 142.046 167.55 141.637C167.55 140.879 167.949 140.49 168.748 140.469Z" fill="#D4203B"/>
<path d="M11.7483 158.158C12.1622 158.458 12.47 158.785 12.6713 159.142C12.8782 159.493 12.9818 159.872 12.9818 160.281C12.9818 160.942 12.7259 161.552 12.2141 162.109C11.5872 162.799 10.6442 163.173 9.38448 163.231C8.68878 163.265 7.71123 163.283 6.45154 163.283H2.18164L2.19026 162.877L2.20753 161.204L2.23338 157.908L2.19888 154.32L2.18164 151.508H6.80541C7.96124 151.508 8.7549 151.528 9.18613 151.568C9.62324 151.603 10.0719 151.692 10.532 151.835C11.0208 151.991 11.478 152.218 11.9036 152.517C12.3289 152.816 12.6598 153.144 12.8956 153.5C13.2636 154.058 13.4475 154.682 13.4475 155.372C13.4475 155.993 13.2952 156.554 12.9903 157.054C12.6855 157.555 12.2716 157.923 11.7483 158.158ZM11.0494 158.383C10.8021 158.435 10.5722 158.46 10.3594 158.46C9.90511 158.46 9.53705 158.386 9.25519 158.236C8.97921 158.087 8.84109 157.891 8.84109 157.65C8.84109 157.517 8.88713 157.451 8.97921 157.451C9.04827 157.451 9.14303 157.48 9.26375 157.537C9.66072 157.739 10.0919 157.839 10.5577 157.839C11.403 157.839 12.0414 157.506 12.4729 156.839C12.7489 156.419 12.8868 155.939 12.8868 155.398C12.8868 154.576 12.5677 153.871 11.9293 153.285C11.475 152.859 10.9316 152.551 10.2989 152.362C9.67223 152.172 8.88419 152.077 7.93527 152.077H7.46095L7.40929 157.253L7.46095 162.713L8.23721 162.722C9.09405 162.722 9.76136 162.676 10.2386 162.584C10.7159 162.486 11.1129 162.322 11.429 162.092C12.0845 161.609 12.4124 161 12.4124 160.263C12.4124 159.89 12.2973 159.547 12.0674 159.237C11.8431 158.921 11.5037 158.636 11.0494 158.383ZM26.6269 150.8L33.5278 163.283H27.5498L26.7305 161.704H23.8321L21.2784 161.695L20.8472 161.687L20.2778 162.739C20.1111 163.055 19.9933 163.251 19.9242 163.326C19.8611 163.406 19.7805 163.446 19.6828 163.446C19.4871 163.446 19.3894 163.36 19.3894 163.188C19.3894 163.113 19.444 162.975 19.5532 162.774C19.6684 162.567 20.0621 161.894 20.735 160.755L25.9539 151.965L26.6269 150.8ZM23.944 156.451L22.4345 158.995L21.2268 161.091L23.8147 161.126L26.4111 161.1L23.944 156.451ZM47.6821 161.333C48.234 161.713 48.8293 162.038 49.4675 162.308C50.1118 162.572 50.8018 162.779 51.5379 162.929C51.7162 162.964 51.8054 163.05 51.8054 163.188C51.8054 163.377 51.6731 163.472 51.4084 163.472C50.8048 163.472 49.9565 163.208 48.8638 162.679C47.9551 162.236 46.9141 161.552 45.7411 160.626V160.98L45.7497 162.446V163.283H40.4963V162.894L40.5134 160.082L40.5394 156.718L40.522 151.508H43.99C45.5425 151.508 46.7157 151.551 47.5094 151.637C48.3031 151.723 48.9787 151.884 49.5365 152.12C50.4453 152.5 51.164 153.124 51.6932 153.992C52.182 154.797 52.4264 155.643 52.4264 156.528C52.4264 157.471 52.1533 158.36 51.607 159.194C50.7269 160.534 49.4188 161.247 47.6821 161.333ZM46.8624 160.798L47.2765 160.807C48.4613 160.807 49.4618 160.476 50.2785 159.815C50.7959 159.401 51.1929 158.883 51.4689 158.262C51.7277 157.693 51.857 157.112 51.857 156.519C51.857 155.513 51.5294 154.613 50.8736 153.819C50.3733 153.204 49.7464 152.77 48.9931 152.517C48.2396 152.264 47.1788 152.129 45.8099 152.112L45.7323 157.891V159.452L45.7411 159.858C46.0918 160.197 46.4657 160.511 46.8624 160.798ZM69.7721 158.158C70.1862 158.458 70.494 158.785 70.6953 159.142C70.9022 159.493 71.0058 159.872 71.0058 160.281C71.0058 160.942 70.7499 161.552 70.2381 162.109C69.6112 162.799 68.6679 163.173 67.4085 163.231C66.7128 163.265 65.735 163.283 64.4756 163.283H60.2056L60.2142 162.877L60.2316 161.204L60.2573 157.908L60.2227 154.32L60.2056 151.508H64.8292C65.9853 151.508 66.7789 151.528 67.2102 151.568C67.6473 151.603 68.0959 151.692 68.5558 151.835C69.0448 151.991 69.502 152.218 69.9273 152.517C70.3529 152.816 70.6838 153.144 70.9193 153.5C71.2874 154.058 71.4716 154.682 71.4716 155.372C71.4716 155.993 71.3193 156.554 71.0144 157.054C70.7095 157.555 70.2954 157.923 69.7721 158.158ZM69.0734 158.383C68.8261 158.435 68.5962 158.46 68.3834 158.46C67.9291 158.46 67.5611 158.386 67.2792 158.236C67.0032 158.087 66.8651 157.891 66.8651 157.65C66.8651 157.517 66.9112 157.451 67.0032 157.451C67.072 157.451 67.1671 157.48 67.2878 157.537C67.6845 157.739 68.116 157.839 68.5817 157.839C69.4271 157.839 70.0655 157.506 70.4967 156.839C70.7729 156.419 70.9108 155.939 70.9108 155.398C70.9108 154.576 70.5917 153.871 69.9533 153.285C69.4991 152.859 68.9557 152.551 68.3229 152.362C67.696 152.172 66.9082 152.077 65.9593 152.077H65.485L65.433 157.253L65.485 162.713L66.2612 162.722C67.1181 162.722 67.7851 162.676 68.2627 162.584C68.7399 162.486 69.1366 162.322 69.453 162.092C70.1086 161.609 70.4365 161 70.4365 160.263C70.4365 159.89 70.3214 159.547 70.0914 159.237C69.8671 158.921 69.5277 158.636 69.0734 158.383ZM84.297 155.286C84.2855 155.55 84.2799 155.873 84.2799 156.252V156.77L84.3404 162.722L87.2645 162.687L89.335 162.662C89.6741 162.662 89.8438 162.765 89.8438 162.972C89.8438 163.144 89.7576 163.242 89.585 163.265C89.5448 163.271 89.3061 163.277 88.8689 163.283H79.0696L79.0781 162.834L79.087 159.953L79.1212 156.865L79.0524 151.508H88.1963C88.6045 151.508 88.8374 151.516 88.8949 151.533C89.0271 151.568 89.0933 151.666 89.0933 151.827C89.0933 152.028 88.9669 152.129 88.7137 152.129H88.6535L84.3316 152.068L84.297 154.743L85.2374 154.751L88.2565 154.7L88.9209 154.691C89.1623 154.691 89.3205 154.711 89.3952 154.751C89.4758 154.791 89.5159 154.872 89.5159 154.993C89.5159 155.217 89.3261 155.329 88.9466 155.329L88.2653 155.312L84.297 155.286ZM104.257 161.333C104.809 161.713 105.404 162.038 106.042 162.308C106.686 162.572 107.376 162.779 108.113 162.929C108.291 162.964 108.38 163.05 108.38 163.188C108.38 163.377 108.248 163.472 107.983 163.472C107.379 163.472 106.531 163.208 105.438 162.679C104.53 162.236 103.489 161.552 102.316 160.626V160.98L102.324 162.446V163.283H97.0708V162.894L97.0882 160.082L97.1142 156.718L97.0968 151.508H100.565C102.117 151.508 103.291 151.551 104.084 151.637C104.878 151.723 105.554 151.884 106.111 152.12C107.02 152.5 107.739 153.124 108.268 153.992C108.757 154.797 109.001 155.643 109.001 156.528C109.001 157.471 108.728 158.36 108.182 159.194C107.302 160.534 105.993 161.247 104.257 161.333ZM103.437 160.798L103.851 160.807C105.036 160.807 106.037 160.476 106.853 159.815C107.371 159.401 107.767 158.883 108.044 158.262C108.302 157.693 108.432 157.112 108.432 156.519C108.432 155.513 108.104 154.613 107.448 153.819C106.948 153.204 106.321 152.77 105.568 152.517C104.814 152.264 103.753 152.129 102.385 152.112L102.307 157.891V159.452L102.316 159.858C102.667 160.197 103.04 160.511 103.437 160.798ZM127.268 161.281C127.372 161.281 127.493 161.359 127.63 161.514C128.062 161.986 128.588 162.365 129.209 162.653C129.836 162.935 130.454 163.076 131.064 163.076C131.737 163.076 132.073 162.871 132.073 162.463C132.073 162.204 131.955 161.914 131.719 161.592C131.484 161.264 130.92 160.62 130.029 159.66C128.907 158.446 128.16 157.546 127.786 156.96C127.291 156.183 127.044 155.444 127.044 154.743C127.044 153.685 127.516 152.819 128.459 152.146C129.385 151.485 130.526 151.154 131.883 151.154C132.832 151.154 133.703 151.347 134.497 151.732C134.796 151.881 135.052 152.054 135.265 152.249C135.483 152.445 135.592 152.609 135.592 152.741C135.592 152.804 135.561 152.865 135.498 152.922C135.44 152.974 135.38 153 135.316 153C135.219 153 135.075 152.911 134.885 152.733C134.575 152.439 134.166 152.198 133.66 152.008C133.154 151.812 132.668 151.715 132.202 151.715C131.915 151.715 131.679 151.778 131.495 151.904C131.317 152.025 131.228 152.183 131.228 152.379C131.228 152.615 131.34 152.902 131.564 153.242C131.789 153.581 132.168 154.032 132.703 154.596C134.394 156.396 135.429 157.609 135.808 158.236C136.205 158.898 136.404 159.536 136.404 160.151C136.404 160.675 136.262 161.169 135.981 161.635C135.699 162.101 135.308 162.483 134.808 162.782C133.853 163.352 132.688 163.636 131.314 163.636C130.049 163.636 128.936 163.309 127.975 162.653C127.303 162.193 126.966 161.833 126.966 161.575C126.966 161.5 126.995 161.434 127.053 161.376C127.116 161.313 127.188 161.281 127.268 161.281ZM155.06 155.562L155.043 153.138L155.026 152.06C155.026 151.778 155.049 151.588 155.095 151.49C155.141 151.393 155.236 151.344 155.38 151.344C155.598 151.344 155.707 151.519 155.707 151.87L155.699 152.457L155.682 154.372L155.656 157.451L155.682 160.66L155.699 162.912C155.699 163.119 155.676 163.26 155.63 163.334C155.59 163.409 155.506 163.446 155.38 163.446C155.247 163.446 155.155 163.406 155.103 163.326C155.058 163.245 155.035 163.098 155.035 162.886L155.043 162.152L155.069 157.822V156.218L154.741 156.209L153.059 156.174L149.359 156.218L149.367 158.599L149.419 163.283H144.131L144.174 155.804L144.157 153.828L144.148 152.008L144.131 151.508H149.419L149.41 151.956L149.367 155.562C149.954 155.602 150.885 155.622 152.162 155.622C153.335 155.622 154.301 155.602 155.06 155.562ZM169.439 151.154C170.347 151.154 171.224 151.347 172.07 151.732C173.312 152.301 174.261 153.178 174.916 154.363C175.44 155.312 175.701 156.344 175.701 157.46C175.701 158.357 175.503 159.225 175.106 160.065C174.514 161.319 173.591 162.271 172.337 162.92C171.417 163.398 170.451 163.636 169.439 163.636C168.369 163.636 167.357 163.366 166.402 162.825C165.131 162.112 164.226 161.112 163.685 159.823C163.351 159.036 163.185 158.222 163.185 157.382C163.185 156.33 163.446 155.326 163.97 154.372C164.614 153.198 165.554 152.322 166.79 151.741C167.613 151.355 168.496 151.16 169.439 151.154ZM168.757 151.732L168.705 157.348L168.749 162.015L168.757 163.067C168.953 163.101 169.14 163.119 169.318 163.119C170.589 163.119 171.725 162.768 172.725 162.066C173.64 161.422 174.301 160.594 174.709 159.582C174.997 158.874 175.141 158.141 175.141 157.382C175.141 156.382 174.899 155.45 174.416 154.587C173.824 153.529 172.99 152.75 171.915 152.249C171.109 151.87 170.261 151.68 169.37 151.68C169.163 151.68 168.959 151.698 168.757 151.732ZM188.553 161.169V161.411L188.561 163.067V163.283H183.299L183.308 162.756L183.351 156.692L183.317 153.811L183.308 151.853L183.299 151.508H187.242C188.852 151.508 190.071 151.577 190.899 151.715C191.733 151.853 192.432 152.1 192.995 152.457C193.755 152.934 194.341 153.598 194.755 154.449C195.072 155.099 195.23 155.781 195.23 156.494C195.23 157.264 195.052 158.001 194.695 158.702C194.269 159.542 193.665 160.189 192.883 160.643C192.107 161.091 191.207 161.316 190.183 161.316C189.804 161.316 189.26 161.267 188.553 161.169ZM188.561 152.094V152.672L188.527 158.435L188.544 160.583C188.999 160.703 189.588 160.764 190.313 160.764C190.962 160.764 191.578 160.634 192.159 160.376C192.74 160.117 193.231 159.752 193.634 159.28C194.318 158.481 194.66 157.552 194.66 156.494C194.66 155.487 194.321 154.576 193.642 153.759C193.159 153.178 192.535 152.756 191.771 152.491C191.006 152.226 190.022 152.094 188.82 152.094H188.561Z" fill="#F7F9FC"/>
<path d="M137.161 84.8535H56.0545C55.611 84.8535 55.2515 85.213 55.2515 85.6565V86.3017C55.2515 86.7452 55.611 87.1047 56.0545 87.1047H137.161C137.604 87.1047 137.964 86.7452 137.964 86.3017V85.6565C137.964 85.213 137.604 84.8535 137.161 84.8535Z" fill="#F7F9FC"/>
<path d="M56.5959 85.979H55.7868C55.4912 85.979 55.2515 86.2187 55.2515 86.5144V95.2928C55.2515 95.5885 55.4912 95.8281 55.7868 95.8281H56.5959C56.8916 95.8281 57.1313 95.5885 57.1313 95.2928V86.5144C57.1313 86.2187 56.8916 85.979 56.5959 85.979Z" fill="#F7F9FC"/>
<path d="M137.428 85.979H136.619C136.323 85.979 136.084 86.2187 136.084 86.5144V95.2928C136.084 95.5885 136.323 95.8281 136.619 95.8281H137.428C137.724 95.8281 137.964 95.5885 137.964 95.2928V86.5144C137.964 86.2187 137.724 85.979 137.428 85.979Z" fill="#F7F9FC"/>
<path d="M60.0872 85.979H59.8151C59.5195 85.979 59.2798 86.2187 59.2798 86.5144V95.2928C59.2798 95.5885 59.5195 95.8281 59.8151 95.8281H60.0872C60.3828 95.8281 60.6225 95.5885 60.6225 95.2928V86.5144C60.6225 86.2187 60.3828 85.979 60.0872 85.979Z" fill="#F7F9FC"/>
<path d="M63.5784 85.979H63.3063C63.0107 85.979 62.771 86.2187 62.771 86.5144V95.2928C62.771 95.5885 63.0107 95.8281 63.3063 95.8281H63.5784C63.874 95.8281 64.1137 95.5885 64.1137 95.2928V86.5144C64.1137 86.2187 63.874 85.979 63.5784 85.979Z" fill="#F7F9FC"/>
<path d="M67.0693 85.979H66.7973C66.5016 85.979 66.262 86.2187 66.262 86.5144V95.2928C66.262 95.5885 66.5016 95.8281 66.7973 95.8281H67.0693C67.365 95.8281 67.6047 95.5885 67.6047 95.2928V86.5144C67.6047 86.2187 67.365 85.979 67.0693 85.979Z" fill="#F7F9FC"/>
<path d="M69.7529 86.5144C69.7529 86.2188 69.9928 85.979 70.2883 85.979H70.5605C70.856 85.979 71.0959 86.2188 71.0959 86.5144V95.2928C71.0959 95.5886 70.856 95.8282 70.5605 95.8282H70.2883C69.9928 95.8282 69.7529 95.5886 69.7529 95.2928V86.5144Z" fill="#F7F9FC"/>
<path d="M74.0515 85.979H73.7795C73.4838 85.979 73.2441 86.2187 73.2441 86.5144V95.2928C73.2441 95.5885 73.4838 95.8281 73.7795 95.8281H74.0515C74.3472 95.8281 74.5869 95.5885 74.5869 95.2928V86.5144C74.5869 86.2187 74.3472 85.979 74.0515 85.979Z" fill="#F7F9FC"/>
<path d="M77.5427 85.979H77.2707C76.975 85.979 76.7354 86.2187 76.7354 86.5144V95.2928C76.7354 95.5885 76.975 95.8281 77.2707 95.8281H77.5427C77.8384 95.8281 78.0781 95.5885 78.0781 95.2928V86.5144C78.0781 86.2187 77.8384 85.979 77.5427 85.979Z" fill="#F7F9FC"/>
<path d="M81.0337 85.979H80.7617C80.466 85.979 80.2263 86.2187 80.2263 86.5144V95.2928C80.2263 95.5885 80.466 95.8281 80.7617 95.8281H81.0337C81.3294 95.8281 81.569 95.5885 81.569 95.2928V86.5144C81.569 86.2187 81.3294 85.979 81.0337 85.979Z" fill="#F7F9FC"/>
<path d="M84.5249 85.979H84.2529C83.9572 85.979 83.7175 86.2187 83.7175 86.5144V95.2928C83.7175 95.5885 83.9572 95.8281 84.2529 95.8281H84.5249C84.8206 95.8281 85.0603 95.5885 85.0603 95.2928V86.5144C85.0603 86.2187 84.8206 85.979 84.5249 85.979Z" fill="#F7F9FC"/>
<path d="M88.0156 85.979H87.7436C87.4479 85.979 87.2083 86.2187 87.2083 86.5144V95.2928C87.2083 95.5885 87.4479 95.8281 87.7436 95.8281H88.0156C88.3113 95.8281 88.551 95.5885 88.551 95.2928V86.5144C88.551 86.2187 88.3113 85.979 88.0156 85.979Z" fill="#F7F9FC"/>
<path d="M91.5073 85.979H91.2353C90.9396 85.979 90.7 86.2187 90.7 86.5144V95.2928C90.7 95.5885 90.9396 95.8281 91.2353 95.8281H91.5073C91.803 95.8281 92.0427 95.5885 92.0427 95.2928V86.5144C92.0427 86.2187 91.803 85.979 91.5073 85.979Z" fill="#F7F9FC"/>
<path d="M94.998 85.979H94.726C94.4304 85.979 94.1907 86.2187 94.1907 86.5144V95.2928C94.1907 95.5885 94.4304 95.8281 94.726 95.8281H94.998C95.2937 95.8281 95.5334 95.5885 95.5334 95.2928V86.5144C95.5334 86.2187 95.2937 85.979 94.998 85.979Z" fill="#F7F9FC"/>
<path d="M98.4893 85.979H98.2172C97.9216 85.979 97.6819 86.2187 97.6819 86.5144V95.2928C97.6819 95.5885 97.9216 95.8281 98.2172 95.8281H98.4893C98.7849 95.8281 99.0246 95.5885 99.0246 95.2928V86.5144C99.0246 86.2187 98.7849 85.979 98.4893 85.979Z" fill="#F7F9FC"/>
<path d="M101.98 85.979H101.708C101.413 85.979 101.173 86.2187 101.173 86.5144V95.2928C101.173 95.5885 101.413 95.8281 101.708 95.8281H101.98C102.276 95.8281 102.516 95.5885 102.516 95.2928V86.5144C102.516 86.2187 102.276 85.979 101.98 85.979Z" fill="#F7F9FC"/>
<path d="M105.471 85.979H105.199C104.904 85.979 104.664 86.2187 104.664 86.5144V95.2928C104.664 95.5885 104.904 95.8281 105.199 95.8281H105.471C105.767 95.8281 106.007 95.5885 106.007 95.2928V86.5144C106.007 86.2187 105.767 85.979 105.471 85.979Z" fill="#F7F9FC"/>
<path d="M108.963 85.979H108.691C108.395 85.979 108.155 86.2187 108.155 86.5144V95.2928C108.155 95.5885 108.395 95.8281 108.691 95.8281H108.963C109.258 95.8281 109.498 95.5885 109.498 95.2928V86.5144C109.498 86.2187 109.258 85.979 108.963 85.979Z" fill="#F7F9FC"/>
<path d="M112.454 85.979H112.182C111.886 85.979 111.646 86.2187 111.646 86.5144V95.2928C111.646 95.5885 111.886 95.8281 112.182 95.8281H112.454C112.749 95.8281 112.989 95.5885 112.989 95.2928V86.5144C112.989 86.2187 112.749 85.979 112.454 85.979Z" fill="#F7F9FC"/>
<path d="M115.945 85.979H115.673C115.377 85.979 115.137 86.2187 115.137 86.5144V95.2928C115.137 95.5885 115.377 95.8281 115.673 95.8281H115.945C116.24 95.8281 116.48 95.5885 116.48 95.2928V86.5144C116.48 86.2187 116.24 85.979 115.945 85.979Z" fill="#F7F9FC"/>
<path d="M119.436 85.979H119.164C118.868 85.979 118.628 86.2187 118.628 86.5144V95.2928C118.628 95.5885 118.868 95.8281 119.164 95.8281H119.436C119.731 95.8281 119.971 95.5885 119.971 95.2928V86.5144C119.971 86.2187 119.731 85.979 119.436 85.979Z" fill="#F7F9FC"/>
<path d="M122.927 85.979H122.655C122.359 85.979 122.119 86.2187 122.119 86.5144V95.2928C122.119 95.5885 122.359 95.8281 122.655 95.8281H122.927C123.222 95.8281 123.462 95.5885 123.462 95.2928V86.5144C123.462 86.2187 123.222 85.979 122.927 85.979Z" fill="#F7F9FC"/>
<path d="M126.418 85.979H126.146C125.85 85.979 125.611 86.2187 125.611 86.5144V95.2928C125.611 95.5885 125.85 95.8281 126.146 95.8281H126.418C126.714 95.8281 126.953 95.5885 126.953 95.2928V86.5144C126.953 86.2187 126.714 85.979 126.418 85.979Z" fill="#F7F9FC"/>
<path d="M129.909 85.979H129.637C129.341 85.979 129.102 86.2187 129.102 86.5144V95.2928C129.102 95.5885 129.341 95.8281 129.637 95.8281H129.909C130.205 95.8281 130.445 95.5885 130.445 95.2928V86.5144C130.445 86.2187 130.205 85.979 129.909 85.979Z" fill="#F7F9FC"/>
<path d="M133.4 85.979H133.128C132.832 85.979 132.593 86.2187 132.593 86.5144V95.2928C132.593 95.5885 132.832 95.8281 133.128 95.8281H133.4C133.696 95.8281 133.935 95.5885 133.935 95.2928V86.5144C133.935 86.2187 133.696 85.979 133.4 85.979Z" fill="#F7F9FC"/>
<path d="M38.064 62.2554C34.8026 60.1057 31.2998 59.066 27.5165 58.9964C25.7029 58.9632 23.8846 59.0649 22.0743 58.9795C14.9306 58.6423 8.6589 56.1569 3.64317 50.8997C1.38569 48.5337 -0.124464 45.7306 0.140134 42.2618C0.177448 41.7725 -0.0500762 40.9973 0.695136 40.9686C1.42351 40.9405 1.31055 41.6908 1.35504 42.2069C1.55652 44.5435 2.73633 46.4143 4.23366 48.0731C7.06836 51.214 10.6467 53.0711 14.6399 54.3316C16.7735 55.0051 18.9861 54.9395 21.1069 55.5463C22.5706 55.965 23.9657 55.1839 25.39 54.9681C32.2155 53.9341 39.912 57.245 43.3528 63.4602C44.3062 65.1824 44.9339 67.0189 45.4018 68.9181C46.1548 71.9734 47.8133 74.5241 49.7162 76.9401C49.9716 77.2643 50.3988 77.4123 51.2963 77.6631C51.6224 76.3617 50.8541 75.3049 50.4307 74.2559C47.5106 67.0224 43.4515 60.4523 38.7926 54.2457C36.1113 50.6733 33.1738 47.3447 29.7837 44.4399C29.4962 44.1933 29.013 43.9701 29.2537 43.4875C29.509 42.9754 29.9992 43.1786 30.436 43.2557C34.108 43.9037 37.3038 45.6024 40.2367 47.8993C41.297 45.1832 42.9951 43.8264 44.9369 44.0774C47.0242 44.3475 49.0452 46.1988 49.0208 48.1989C48.9863 51.0266 47.3117 52.4632 44.4323 52.5473C45.0902 54.4363 46.449 55.5709 47.6324 56.7634C49.6383 58.7841 51.9398 60.3707 54.7727 61.1175C58.5156 62.1044 62.3083 60.3803 63.7634 56.6789C64.6368 54.4566 65.1698 52.1163 65.1834 49.6823C65.1896 48.6317 64.8169 48.0476 63.7832 47.736C61.3971 47.0165 59.8186 44.3871 60.2458 42.0123C60.7234 39.358 62.9847 37.5204 65.6101 37.6535C69.137 37.832 71.2864 41.8846 69.6199 45.2137C68.6736 47.1046 68.7028 47.0773 70.1467 48.6507C72.4043 51.1109 74.9946 53.1134 78.1914 54.0481C81.9191 55.1378 85.3049 54.2248 88.2759 51.6936C91.2235 49.182 93.1262 45.9474 94.5904 42.4112C94.9456 41.5535 95.1932 40.6504 95.4938 39.7692C95.6375 39.3481 95.743 38.8082 96.2545 38.7756C96.8081 38.7402 97.0225 39.2196 97.2278 39.7031C98.7327 43.2463 100.702 46.4836 103.3 49.3357C105.691 51.9608 108.55 53.8717 111.943 54.6734C114.529 55.2843 117.111 54.659 119.456 53.3085C121.486 52.1391 123.112 50.5201 124.536 48.6622C125.198 47.7987 125.255 47.0845 124.532 46.1779C122.775 43.9755 123.062 40.7336 124.302 39.0791C125.459 37.5357 127.046 36.7926 128.757 36.9629C131.225 37.2083 133.085 38.6551 133.846 41.1665C134.86 44.5108 133.526 47.0462 130.184 48.3206C129.801 48.4665 129.383 48.647 129.388 49.1165C129.402 50.4002 129.178 51.6803 129.582 52.9694C130.058 54.4855 130.312 56.0678 131.05 57.5044C133.277 61.8429 137.5 62.9599 141.712 60.702C144.933 58.9758 147.162 56.2345 149.13 52.9469C146.86 51.9734 145.282 50.4433 145.451 47.8487C145.538 46.5267 146.266 45.4019 147.346 44.5957C149.401 43.0624 151.706 44.1157 153.862 47.6094C156.795 45.5636 159.762 43.5552 163.522 43.5292C153.097 52.6051 146.611 64.0378 142.4 77.0416C143.305 77.3566 143.558 76.9655 143.836 76.6245C146.135 73.7984 147.613 70.6082 148.613 67.0639C149.903 62.4907 152.852 59.1444 157.069 56.919C161.473 54.5955 166.103 54.3407 170.84 55.2208C172.565 55.5412 174.21 55.1908 175.842 55.0078C181.355 54.3889 186.301 52.3155 190.283 48.2794C191.991 46.5484 193.285 44.5397 193.554 42.004C193.597 41.5926 193.565 40.9483 194.157 40.9745C194.898 41.0072 194.604 41.709 194.65 42.1408C195.112 46.4362 192.887 49.5057 189.952 52.1083C185.988 55.6231 181.297 57.5812 176.108 58.5788C172.483 59.2756 168.87 58.6474 165.28 59.0117C158.751 59.6744 153.219 62.0701 150.403 68.6261C149.761 70.1192 149.469 71.7552 148.813 73.2633C147.982 75.1753 146.778 76.8065 145.342 78.2731C143.885 79.7617 142.143 80.493 140.022 80.4919C111.702 80.4764 83.3811 80.4959 55.0604 80.4949C53.7038 80.4949 52.3475 80.7666 50.989 80.2791C48.2389 79.2927 46.7306 77.0402 45.3349 74.6991C44.3798 73.0968 43.8959 71.2763 43.395 69.4813C42.5401 66.4172 40.7113 64.0887 38.064 62.2554Z" fill="#F7F9FC"/>
<path d="M116.512 0.577084C117.724 1.20532 117.123 2.08437 116.716 2.73055C115.914 4.00469 114.938 5.16961 114.032 6.37844C109.629 12.2542 105.229 18.1319 100.816 24.0004C100.427 24.5192 100.035 24.9702 100.526 25.6477C102.82 28.8092 105.1 31.9809 107.383 35.1502C107.513 35.3317 107.629 35.5242 107.764 35.7313C109.019 35.0373 109.823 34.0356 111.056 33.5316C113.739 32.4357 115.819 33.4529 117.736 35.087C120.701 37.6139 120.751 44.0034 117.287 46.3185C113.866 48.6045 109.103 47.3541 107.701 43.3631C106.408 39.6849 104.261 36.6082 102.297 33.3659C101.744 32.4534 101.063 32.0457 100.009 32.0976C98.8889 32.1528 97.8238 32.1653 97.2009 30.8446C96.8931 30.1915 96.04 30.0408 95.5732 30.8312C95.1219 31.5952 94.4826 31.7205 93.7564 31.6174C92.4593 31.4338 91.6541 32.0698 90.9959 33.0728C88.4894 36.892 85.6908 40.5102 83.4431 44.5114C82.0357 47.0169 79.3983 47.9371 76.6808 47.0966C74.8633 46.5342 73.8019 44.9798 73.462 43.2833C72.822 40.0913 73.1461 37.0135 76.0395 34.5715C78.0529 32.872 81.5681 32.9213 83.3063 35.0635C83.6027 35.4286 83.7825 35.9259 84.4258 36.1553C86.0704 33.8774 87.7329 31.5818 89.3866 29.2801C90.0874 28.3046 90.7245 27.2792 91.4745 26.3436C92.1638 25.4836 92.2018 24.7772 91.5235 23.8505C86.9259 17.5673 82.3746 11.2502 77.8107 4.94209C77.0299 3.86255 76.2324 2.79345 75.5001 1.68152C75.1821 1.19863 74.9283 0.516321 75.5196 0.120427C76.067 -0.246022 76.4991 0.304323 76.8545 0.697272C82.0137 6.39905 87.1641 12.1091 92.3265 17.808C93.3097 18.8937 94.3303 19.9454 95.344 21.003C96.2838 21.9832 96.8291 22.0019 97.7727 20.9716C101.713 16.6709 105.597 12.3187 109.57 8.04848C111.867 5.57969 113.92 2.8858 116.512 0.577084ZM113.908 44.5326C114.079 44.4828 114.248 44.4223 114.421 44.3848C116.683 43.8944 117.894 42.0001 117.481 39.5824C117.219 38.0459 115.367 36.1173 113.008 36.4501C111.234 36.7001 109.513 38.8918 109.661 40.8086C109.806 42.6861 111.336 44.1069 113.908 44.5326ZM78.9419 44.2863C80.9599 43.9247 82.4701 42.3349 82.6939 40.3373C82.8387 39.0438 81.5879 36.836 80.5145 36.4905C78.9799 35.9966 77.6717 36.556 76.6639 38.0949C75.5062 39.8624 75.6572 43.3007 78.9419 44.2863ZM95.4813 25.8608C95.4548 26.3225 95.4211 26.8461 96.0967 26.7535C96.4795 26.701 96.7036 26.3078 96.578 25.9306C96.392 25.372 95.9985 25.3144 95.4813 25.8608Z" fill="#F7F9FC"/>
<path d="M162.867 62.2831C167.526 61.9298 172.094 62.0548 176.6 61.6525C181.982 61.1717 187.1 59.4425 191.543 56.1538C192.371 55.5414 193.058 54.7831 193.711 53.9862C194.004 53.6288 194.165 53.0825 194.858 53.0298C195.543 53.7067 195.341 54.5352 195.083 55.323C193.974 58.7112 191.328 60.6444 188.352 62.1752C183.371 64.738 178.008 65.333 172.534 64.7214C170.156 64.4556 167.801 63.8161 165.395 63.9756C161.908 64.2072 158.351 64.2337 155.245 66.2388C155.122 66.3186 154.919 66.276 154.702 66.295C154.367 65.2522 155.181 64.8873 155.733 64.4976C157.823 63.02 160.174 62.297 162.867 62.2831Z" fill="#F7F9FC"/>
<path d="M36.7716 63.6518C37.6263 64.1464 38.401 64.5929 39.011 65.2535C39.2407 65.5025 39.597 65.7908 39.3156 66.1733C39.03 66.5614 38.6866 66.32 38.3777 66.1264C36.3228 64.8392 34.0084 64.6323 31.6697 64.2551C27.4228 63.5699 23.3487 64.8815 19.1973 64.8975C12.2329 64.9243 5.75835 63.4122 1.19612 57.5024C0.246939 56.273 -0.338576 54.8289 0.213882 53.1821C0.844475 53.1262 1.05045 53.5633 1.3007 53.9019C3.45392 56.8145 6.51935 58.3536 9.77966 59.6476C11.8922 60.4859 14.0512 61.1546 16.2866 61.4737C19.2198 61.8921 22.1525 62.2197 25.1467 62.2229C28.5435 62.2266 32.0142 61.8637 35.3439 63.0425C35.8088 63.2072 36.2285 63.4368 36.7716 63.6518Z" fill="#F7F9FC"/>
<path d="M183.759 68.3113C185.026 67.9623 186.135 67.5276 187.172 66.9087C187.499 66.7141 187.86 66.36 188.243 66.7687C188.621 67.1718 188.235 67.5541 188.052 67.8525C186.751 69.9712 184.615 70.8104 182.378 71.5058C180.848 71.9814 179.284 71.7464 177.736 71.8447C173.586 72.1083 169.652 71.2676 165.734 69.9182C162.461 68.7913 158.969 69.1296 155.549 69.1537C155.079 69.1569 154.565 69.3336 154.069 68.8132C154.899 67.9211 156.094 67.8089 157.089 67.7152C159.461 67.4917 161.791 66.8768 164.22 67.0704C166.029 67.2144 167.815 67.5428 169.589 67.8172C172.828 68.318 176.024 69.0456 179.332 68.9762C180.805 68.9455 182.166 68.2374 183.759 68.3113Z" fill="#F7F9FC"/>
<path d="M21.4441 71.8123C19.0029 71.8198 16.6802 71.9346 14.3734 71.7939C11.9306 71.6448 9.69628 70.7628 7.87742 69.0652C7.2896 68.5167 6.61907 67.9109 6.83107 66.8574C7.90633 66.6047 8.49575 67.5654 9.34081 67.8376C13.0321 69.0261 16.7121 69.245 20.5682 68.6358C22.7008 68.2988 24.7903 67.6018 26.9855 67.6251C28.5375 67.6416 29.9907 66.8632 31.5893 67.0843C34.0284 67.4222 36.4773 67.6912 38.8704 68.2937C39.153 68.3649 39.4863 68.4396 39.664 68.7779C39.6006 69.3245 39.1739 69.3374 38.7826 69.2745C37.3192 69.0392 35.8446 69.1133 34.383 69.1728C31.5521 69.2879 28.765 69.7611 26.0765 70.6726C24.5997 71.1734 23.0938 71.5165 21.4441 71.8123Z" fill="#F7F9FC"/>
<path d="M175.567 75.0951C177.043 74.8812 178.351 74.2607 179.936 74.4149C179.406 75.6848 178.374 75.9634 177.478 76.3379C176.704 76.661 175.862 76.9126 175.031 76.9889C171.391 77.3229 167.719 77.6634 164.369 75.6949C161.305 73.8948 158.074 72.6399 154.509 72.3404C154.075 72.3037 153.679 72.1867 153.68 71.6691C153.682 71.0689 154.2 71.2036 154.566 71.1102C158.868 70.0111 162.826 71.0459 166.586 73.1105C169.363 74.6344 172.367 75.0123 175.567 75.0951Z" fill="#F7F9FC"/>
<path d="M21.8175 77.1803C19.2406 76.9134 16.7303 76.8034 14.8909 74.73C15.3285 74.2894 15.6436 74.3022 15.9428 74.409C20.4339 76.0114 24.6231 74.9848 28.571 72.7604C32.0578 70.7962 35.7196 70.6329 39.5252 71.1511C39.8972 71.2017 40.2532 71.296 40.2631 71.759C40.2736 72.2497 39.8887 72.2971 39.5268 72.3423C35.7185 72.8177 32.3118 74.3097 28.9988 76.2041C26.8595 77.4271 24.3573 77.2574 21.8175 77.1803Z" fill="#F7F9FC"/>
<path d="M154.834 74.9253C156.508 75.6547 158.113 76.2867 159.666 77.0287C162.56 78.4107 165.683 78.3587 168.763 78.5938C169.192 78.6264 169.679 78.4779 169.943 79.0499C169.777 79.6393 169.306 79.831 168.744 79.8465C165.415 79.938 162.088 80.1661 158.783 79.4343C156.208 78.8641 154.155 77.4676 152.297 75.6954C151.997 75.4097 151.827 75.0701 151.763 74.6493C151.639 73.8184 152.052 73.6779 152.694 73.9298C153.393 74.2044 154.061 74.558 154.834 74.9253Z" fill="#F7F9FC"/>
<path d="M39.2773 77.7474C35.3397 80.1955 26.0299 81.021 24.4482 78.8802C27.5661 78.4141 30.7049 78.6872 33.564 77.4518C36.3481 76.2489 39.1242 75.0272 41.9131 73.8096C42.3494 75.1083 41.9581 75.6763 39.2773 77.7474Z" fill="#F7F9FC"/>
<path d="M158.969 82.1369C156.597 82.9016 154.505 82.3117 152.46 81.3247C150.666 80.4588 150.528 78.5864 149.849 77.0446C149.752 76.8243 149.853 76.6069 150.108 76.5181C150.532 76.3709 150.64 76.7397 150.81 76.9734C151.837 78.387 152.951 79.6949 154.694 80.2586C155.948 80.6641 157.177 81.1815 158.549 81.033C158.888 80.996 159.281 80.9958 159.461 81.4091C159.635 81.8063 159.383 81.9736 158.969 82.1369Z" fill="#F7F9FC"/>
<path d="M35.0532 82.1952C33.9121 81.1657 35.0838 81.1801 35.5166 81.0907C36.4596 80.8961 37.4152 80.8999 38.3837 80.6402C40.33 80.1185 41.6884 78.9924 42.7631 77.3909C42.9821 77.0649 43.1681 76.7033 43.8317 76.4741C43.927 78.2148 43.3301 79.7451 42.2538 80.7069C40.2689 82.4802 37.7854 82.9696 35.0532 82.1952Z" fill="#F7F9FC"/>
<path d="M149.568 81.0235C150.144 81.49 151.372 81.6156 150.935 82.3943C150.509 83.1539 149.489 82.5522 148.804 82.228C147.767 81.7374 147.231 80.8348 147.066 79.7079C147.011 79.3374 147.007 78.9699 147.424 78.8085C147.859 78.639 148.157 79.0033 148.281 79.2686C148.585 79.9185 148.882 80.5462 149.568 81.0235Z" fill="#F7F9FC"/>
<path d="M43.9821 82.6791C43.4671 82.9861 43.0514 83.1068 42.8006 82.5222C42.6052 82.0666 42.9617 81.8983 43.2805 81.7227C44.2311 81.1991 45.0322 80.5452 45.4086 79.4659C45.5253 79.131 45.7847 78.8628 46.2071 78.9035C46.918 80.6204 46.1616 81.9291 43.9821 82.6791Z" fill="#F7F9FC"/>
<path d="M145.481 81.1025C145.814 81.5484 145.968 81.9339 145.691 82.3758C144.593 81.9935 144.337 81.5192 144.552 80.2721C145.191 80.1209 145.211 80.6867 145.481 81.1025Z" fill="#F7F9FC"/>
<path d="M47.9541 81.5937C48.3055 81.1103 48.2464 80.4593 48.8593 80.2671C49.2673 81.1274 49.1436 81.8897 48.4565 82.2482C47.802 82.5895 47.6687 82.2731 47.9541 81.5937Z" fill="#F7F9FC"/>
</svg>
