<svg width="250" height="250" viewBox="0 0 250 250" fill="none" xmlns="http://www.w3.org/2000/svg">
<mask id="mask0_182_2" style="mask-type:luminance" maskUnits="userSpaceOnUse" x="4" y="4" width="242" height="242">
<path d="M245.454 4.54541H4.54541V245.454H245.454V4.54541Z" fill="white"/>
</mask>
<g mask="url(#mask0_182_2)">
<path d="M49.2679 153.81L49.2066 161.243L49.3907 180.87V182.283H30.624L30.839 159.462L30.5933 140.357H63.1509C64.6253 140.357 65.4545 140.388 65.639 140.45C66.1098 140.572 66.3454 140.92 66.3454 141.494C66.3454 142.211 65.8949 142.569 64.9939 142.569H64.7789L49.3907 142.354L49.2679 151.875L52.6157 151.906L63.3661 151.722L65.7311 151.691C66.5911 151.691 67.1543 151.763 67.4204 151.906C67.7071 152.05 67.8505 152.336 67.8505 152.766C67.8505 153.565 67.1746 153.964 65.8231 153.964L63.3966 153.903L49.2679 153.81ZM82.1635 166.496V176.017C82.1635 177.86 82.2762 179.027 82.5013 179.519C82.9314 180.461 83.9451 180.932 85.5421 180.932C87.9174 180.932 90.262 180.287 92.5758 178.997C94.9102 177.686 96.9272 175.884 98.6267 173.591C99.1797 172.833 99.5788 172.352 99.8245 172.147C100.07 171.942 100.337 171.84 100.623 171.84C100.971 171.84 101.258 171.973 101.483 172.239C101.708 172.485 101.821 172.803 101.821 173.191C101.821 174.051 101.135 175.208 99.7632 176.662C97.9612 178.526 95.7192 180.041 93.0365 181.208C90.3747 182.375 87.7742 182.959 85.2351 182.959C80.8735 182.959 77.0238 181.495 73.6861 178.567C71.7409 176.847 70.2462 174.727 69.2018 172.209C68.2804 169.997 67.8197 167.786 67.8197 165.574C67.8197 163.445 68.2293 161.315 69.0484 159.186C69.8675 157.036 70.9936 155.182 72.427 153.626C74.0855 151.804 76.0513 150.391 78.3242 149.387C80.5561 148.405 82.8905 147.913 85.3271 147.913C89.1153 147.913 92.545 149.029 95.6166 151.261C100.408 154.742 102.783 159.79 102.742 166.403H95.5859L86.3713 166.434L82.1635 166.496ZM90.0265 164.468V155.5C89.9855 153.575 89.9446 152.428 89.9036 152.06C89.8627 151.671 89.7194 151.312 89.4737 150.985C88.9004 150.186 87.7333 149.787 85.9722 149.787C84.1702 149.787 83.0441 150.248 82.5936 151.169C82.3069 151.722 82.1635 153.165 82.1635 155.5V164.468L85.9107 164.591L90.0265 164.468ZM123.229 140.357L123.26 141.924L123.199 152.735L123.168 157.404L123.106 165.912L123.229 181.085V182.283H107.565V180.84L107.626 175.956L107.657 167.11L107.718 155.53L107.688 149.295L107.595 142.446L107.626 140.357H123.229ZM146.081 140.357L146.112 141.924L146.05 152.735L146.02 157.404L145.958 165.912L146.081 181.085V182.283H130.416V180.84L130.478 175.956L130.509 167.11L130.57 155.53L130.539 149.295L130.447 142.446L130.478 140.357H146.081ZM175.045 161.827V158.08C175.025 155.479 174.984 153.882 174.922 153.288C174.861 152.694 174.677 152.162 174.37 151.691C173.632 150.544 171.912 149.971 169.21 149.971C165.032 149.971 161.807 151.282 159.534 153.903C158.613 154.967 157.835 155.5 157.2 155.5C156.729 155.5 156.32 155.336 155.971 155.008C155.623 154.681 155.449 154.302 155.449 153.872C155.449 152.582 156.975 151.251 160.026 149.879C162.933 148.568 166.691 147.913 171.298 147.913C178.874 147.913 184.219 149.06 187.331 151.353C188.683 152.357 189.563 153.483 189.973 154.732C190.382 155.981 190.587 158.182 190.587 161.336V173.529C190.505 175.782 190.566 177.481 190.771 178.628C190.997 179.754 191.488 180.973 192.246 182.283H175.045V179.058C173.162 180.348 171.288 181.321 169.424 181.976C167.582 182.631 165.759 182.959 163.957 182.959C160.906 182.959 158.193 182.068 155.818 180.287C152.726 177.952 151.18 174.922 151.18 171.195C151.18 167.898 152.429 165.236 154.927 163.209C157.835 160.813 161.439 159.615 165.739 159.615C167.5 159.615 169.056 159.779 170.407 160.107C171.759 160.414 173.305 160.988 175.045 161.827ZM175.076 164.039C172.496 162.748 170.499 162.103 169.087 162.103C167.899 162.103 167.121 162.574 166.752 163.516C166.548 164.028 166.445 165.513 166.445 167.97V175.311C166.466 176.928 166.517 177.911 166.599 178.259C166.803 179.201 167.5 179.672 168.687 179.672C169.629 179.672 170.673 179.396 171.82 178.843C172.987 178.27 174.052 177.522 175.015 176.601L175.076 164.039ZM197.006 176.601C197.416 176.601 197.938 176.908 198.573 177.522C199.597 178.485 201.051 179.314 202.934 180.01C204.818 180.686 206.579 181.024 208.217 181.024C208.975 181.024 209.538 180.901 209.907 180.655C210.296 180.389 210.49 180.01 210.49 179.519C210.49 179.027 210.224 178.444 209.692 177.768C209.18 177.072 208.023 175.751 206.221 173.806C201.818 169.096 198.962 165.789 197.652 163.885C196.361 161.96 195.717 160.117 195.717 158.356C195.717 156.82 196.157 155.356 197.037 153.964C197.938 152.551 199.187 151.353 200.784 150.37C203.426 148.732 206.456 147.913 209.876 147.913C212.395 147.913 215.056 148.446 217.862 149.51C220.053 150.35 221.148 151.261 221.148 152.244C221.148 152.551 221.015 152.827 220.749 153.073C220.503 153.319 220.217 153.442 219.889 153.442C219.5 153.442 218.773 153.063 217.708 152.305C215.538 150.749 213.173 149.971 210.613 149.971C209.712 149.971 209.026 150.115 208.555 150.401C208.105 150.688 207.879 151.128 207.879 151.722C207.879 152.418 208.299 153.299 209.139 154.363C209.999 155.428 211.729 157.23 214.33 159.769C216.869 162.247 218.476 163.875 219.152 164.653C219.848 165.41 220.514 166.291 221.148 167.294C222.234 169.014 222.776 170.878 222.776 172.884C222.776 176.038 221.251 178.587 218.2 180.532C215.702 182.15 212.63 182.959 208.985 182.959C204.931 182.959 201.337 182.058 198.204 180.256C197.283 179.703 196.648 179.252 196.3 178.904C195.972 178.556 195.809 178.177 195.809 177.768C195.809 177.01 196.208 176.621 197.006 176.601Z" fill="#D4203B"/>
<path d="M40.0069 194.29C40.4207 194.589 40.7285 194.917 40.9298 195.273C41.1367 195.624 41.2403 196.004 41.2403 196.412C41.2403 197.073 40.9844 197.683 40.4726 198.241C39.8457 198.931 38.9027 199.305 37.643 199.362C36.9473 199.397 35.9698 199.414 34.7101 199.414H30.4402L30.4488 199.008L30.4661 197.335L30.4919 194.04L30.4574 190.451L30.4402 187.639H35.064C36.2198 187.639 37.0134 187.659 37.4447 187.699C37.8818 187.734 38.3304 187.823 38.7906 187.967C39.2793 188.122 39.7365 188.349 40.1621 188.648C40.5875 188.947 40.9183 189.275 41.1541 189.632C41.5222 190.19 41.7061 190.813 41.7061 191.504C41.7061 192.125 41.5538 192.685 41.2489 193.186C40.944 193.686 40.5302 194.054 40.0069 194.29ZM39.308 194.514C39.0606 194.566 38.8307 194.592 38.6179 194.592C38.1637 194.592 37.7956 194.517 37.5137 194.367C37.2378 194.218 37.0996 194.022 37.0996 193.781C37.0996 193.649 37.1457 193.583 37.2378 193.583C37.3068 193.583 37.4016 193.611 37.5223 193.669C37.9193 193.87 38.3505 193.971 38.8162 193.971C39.6616 193.971 40.3 193.637 40.7315 192.97C41.0074 192.55 41.1453 192.07 41.1453 191.53C41.1453 190.707 40.8262 190.003 40.1878 189.416C39.7336 188.991 39.1902 188.683 38.5574 188.493C37.9308 188.303 37.1427 188.208 36.1938 188.208H35.7195L35.6678 193.384L35.7195 198.845L36.4958 198.853C37.3526 198.853 38.0199 198.807 38.4972 198.715C38.9744 198.617 39.3714 198.454 39.6875 198.224C40.3431 197.74 40.671 197.131 40.671 196.395C40.671 196.021 40.5559 195.679 40.3259 195.368C40.1016 195.052 39.7622 194.767 39.308 194.514ZM54.8854 186.932L61.7864 199.414H55.8084L54.989 197.835H52.0906L49.537 197.827L49.1057 197.818L48.5364 198.871C48.3696 199.187 48.2519 199.382 48.1828 199.457C48.1196 199.538 48.039 199.578 47.9413 199.578C47.7457 199.578 47.648 199.492 47.648 199.319C47.648 199.244 47.7026 199.106 47.8118 198.905C47.9269 198.698 48.3206 198.025 48.9936 196.887L54.2125 188.096L54.8854 186.932ZM52.2025 192.582L50.6931 195.127L49.4853 197.223L52.0732 197.257L54.6697 197.232L52.2025 192.582ZM75.9406 197.464C76.4926 197.844 77.0879 198.169 77.726 198.439C78.3703 198.704 79.0604 198.911 79.7965 199.06C79.9748 199.095 80.0639 199.181 80.0639 199.319C80.0639 199.509 79.9317 199.604 79.6669 199.604C79.0633 199.604 78.2151 199.339 77.1224 198.81C76.2136 198.367 75.1726 197.683 73.9997 196.757V197.111L74.0083 198.577V199.414H68.7548V199.026L68.772 196.214L68.7979 192.849L68.7805 187.639H72.2485C73.8011 187.639 74.9743 187.682 75.768 187.768C76.5616 187.855 77.2372 188.016 77.7951 188.252C78.7038 188.631 79.4225 189.255 79.9517 190.123C80.4405 190.929 80.6849 191.774 80.6849 192.66C80.6849 193.603 80.4119 194.491 79.8656 195.325C78.9854 196.665 77.6773 197.378 75.9406 197.464ZM75.121 196.93L75.5351 196.938C76.7198 196.938 77.7204 196.608 78.5371 195.946C79.0545 195.532 79.4515 195.014 79.7274 194.393C79.9863 193.824 80.1156 193.243 80.1156 192.651C80.1156 191.645 79.7879 190.744 79.1321 189.951C78.6318 189.336 78.0049 188.901 77.2517 188.648C76.4982 188.395 75.4374 188.26 74.0685 188.243L73.9909 194.022V195.584L73.9997 195.989C74.3503 196.329 74.7243 196.642 75.121 196.93ZM98.0306 194.29C98.4447 194.589 98.7526 194.917 98.9538 195.273C99.1608 195.624 99.2644 196.004 99.2644 196.412C99.2644 197.073 99.0085 197.683 98.4967 198.241C97.8698 198.931 96.9265 199.305 95.667 199.362C94.9714 199.397 93.9935 199.414 92.7341 199.414H88.4641L88.4727 199.008L88.4901 197.335L88.5158 194.04L88.4813 190.451L88.4641 187.639H93.0877C94.2438 187.639 95.0375 187.659 95.4687 187.699C95.9058 187.734 96.3544 187.823 96.8143 187.967C97.3034 188.122 97.7605 188.349 98.1859 188.648C98.6115 188.947 98.9423 189.275 99.1779 189.632C99.546 190.19 99.7301 190.813 99.7301 191.504C99.7301 192.125 99.5778 192.685 99.2729 193.186C98.968 193.686 98.5539 194.054 98.0306 194.29ZM97.332 194.514C97.0847 194.566 96.8547 194.592 96.6419 194.592C96.1877 194.592 95.8196 194.517 95.5378 194.367C95.2618 194.218 95.1237 194.022 95.1237 193.781C95.1237 193.649 95.1697 193.583 95.2618 193.583C95.3306 193.583 95.4256 193.611 95.5463 193.669C95.943 193.87 96.3745 193.971 96.8403 193.971C97.6856 193.971 98.324 193.637 98.7552 192.97C99.0315 192.55 99.1693 192.07 99.1693 191.53C99.1693 190.707 98.8503 190.003 98.2119 189.416C97.7576 188.991 97.2142 188.683 96.5814 188.493C95.9545 188.303 95.1668 188.208 94.2178 188.208H93.7435L93.6916 193.384L93.7435 198.845L94.5198 198.853C95.3766 198.853 96.0437 198.807 96.5212 198.715C96.9985 198.617 97.3952 198.454 97.7116 198.224C98.3671 197.74 98.695 197.131 98.695 196.395C98.695 196.021 98.5799 195.679 98.35 195.368C98.1257 195.052 97.7862 194.767 97.332 194.514ZM112.556 191.417C112.544 191.682 112.538 192.004 112.538 192.383V192.901L112.599 198.853L115.523 198.819L117.594 198.793C117.933 198.793 118.102 198.896 118.102 199.103C118.102 199.276 118.016 199.374 117.844 199.397C117.803 199.402 117.565 199.408 117.127 199.414H107.328L107.337 198.965L107.346 196.084L107.38 192.996L107.311 187.639H116.455C116.863 187.639 117.096 187.648 117.153 187.665C117.286 187.699 117.352 187.797 117.352 187.958C117.352 188.159 117.225 188.26 116.972 188.26H116.912L112.59 188.2L112.556 190.874L113.496 190.883L116.515 190.831L117.179 190.822C117.421 190.822 117.579 190.842 117.654 190.883C117.734 190.923 117.774 191.003 117.774 191.124C117.774 191.348 117.585 191.46 117.205 191.46L116.524 191.443L112.556 191.417ZM132.515 197.464C133.067 197.844 133.662 198.169 134.301 198.439C134.945 198.704 135.635 198.911 136.371 199.06C136.549 199.095 136.638 199.181 136.638 199.319C136.638 199.509 136.506 199.604 136.242 199.604C135.638 199.604 134.79 199.339 133.697 198.81C132.788 198.367 131.747 197.683 130.574 196.757V197.111L130.583 198.577V199.414H125.329V199.026L125.347 196.214L125.373 192.849L125.355 187.639H128.823C130.376 187.639 131.549 187.682 132.343 187.768C133.136 187.855 133.812 188.016 134.37 188.252C135.278 188.631 135.997 189.255 136.527 190.123C137.015 190.929 137.26 191.774 137.26 192.66C137.26 193.603 136.986 194.491 136.44 195.325C135.56 196.665 134.252 197.378 132.515 197.464ZM131.696 196.93L132.11 196.938C133.294 196.938 134.295 196.608 135.112 195.946C135.629 195.532 136.026 195.014 136.302 194.393C136.561 193.824 136.69 193.243 136.69 192.651C136.69 191.645 136.362 190.744 135.707 189.951C135.207 189.336 134.58 188.901 133.827 188.648C133.073 188.395 132.012 188.26 130.643 188.243L130.566 194.022V195.584L130.574 195.989C130.925 196.329 131.299 196.642 131.696 196.93ZM155.527 197.413C155.63 197.413 155.751 197.49 155.889 197.646C156.32 198.117 156.846 198.497 157.468 198.784C158.095 199.066 158.713 199.207 159.322 199.207C159.995 199.207 160.332 199.003 160.332 198.594C160.332 198.336 160.214 198.045 159.978 197.723C159.742 197.395 159.178 196.751 158.287 195.791C157.166 194.578 156.418 193.677 156.044 193.091C155.55 192.315 155.302 191.576 155.302 190.874C155.302 189.816 155.774 188.95 156.717 188.278C157.643 187.616 158.785 187.285 160.142 187.285C161.091 187.285 161.962 187.478 162.756 187.863C163.055 188.013 163.311 188.185 163.523 188.381C163.742 188.577 163.851 188.74 163.851 188.873C163.851 188.936 163.819 188.996 163.756 189.054C163.699 189.105 163.638 189.131 163.575 189.131C163.477 189.131 163.334 189.042 163.144 188.864C162.833 188.571 162.425 188.329 161.919 188.139C161.413 187.944 160.927 187.846 160.461 187.846C160.173 187.846 159.938 187.909 159.754 188.036C159.575 188.157 159.486 188.315 159.486 188.51C159.486 188.746 159.598 189.034 159.823 189.373C160.047 189.712 160.426 190.164 160.961 190.727C162.652 192.527 163.687 193.741 164.067 194.367C164.464 195.029 164.662 195.667 164.662 196.283C164.662 196.806 164.521 197.3 164.239 197.766C163.958 198.232 163.566 198.615 163.066 198.914C162.111 199.483 160.947 199.768 159.572 199.768C158.307 199.768 157.194 199.44 156.234 198.784C155.561 198.324 155.225 197.965 155.225 197.706C155.225 197.631 155.254 197.565 155.311 197.508C155.374 197.444 155.446 197.413 155.527 197.413ZM183.319 191.693L183.302 189.27L183.284 188.191C183.284 187.909 183.307 187.72 183.353 187.622C183.399 187.524 183.494 187.475 183.638 187.475C183.857 187.475 183.966 187.651 183.966 188.001L183.957 188.588L183.94 190.503L183.914 193.583L183.94 196.792L183.957 199.043C183.957 199.25 183.934 199.391 183.888 199.466C183.848 199.541 183.765 199.578 183.638 199.578C183.506 199.578 183.414 199.538 183.362 199.457C183.316 199.376 183.293 199.23 183.293 199.017L183.302 198.284L183.328 193.954V192.349L183 192.34L181.318 192.306L177.617 192.349L177.626 194.73L177.677 199.414H172.389L172.432 191.935L172.415 189.96L172.407 188.139L172.389 187.639H177.677L177.669 188.088L177.626 191.693C178.212 191.734 179.144 191.754 180.42 191.754C181.594 191.754 182.56 191.734 183.319 191.693ZM197.697 187.285C198.606 187.285 199.483 187.478 200.328 187.863C201.57 188.433 202.519 189.31 203.175 190.494C203.698 191.443 203.96 192.476 203.96 193.591C203.96 194.488 203.762 195.357 203.365 196.196C202.773 197.45 201.849 198.402 200.596 199.052C199.676 199.529 198.709 199.768 197.697 199.768C196.628 199.768 195.615 199.497 194.661 198.957C193.39 198.244 192.484 197.243 191.943 195.955C191.61 195.167 191.443 194.353 191.443 193.514C191.443 192.461 191.705 191.458 192.228 190.503C192.872 189.33 193.813 188.453 195.049 187.872C195.871 187.487 196.754 187.291 197.697 187.285ZM197.016 187.863L196.964 193.479L197.007 198.146L197.016 199.198C197.211 199.233 197.398 199.25 197.576 199.25C198.847 199.25 199.983 198.899 200.984 198.198C201.898 197.554 202.56 196.725 202.968 195.713C203.255 195.006 203.399 194.273 203.399 193.514C203.399 192.513 203.158 191.581 202.675 190.719C202.082 189.66 201.248 188.881 200.173 188.381C199.368 188.001 198.52 187.812 197.628 187.812C197.421 187.812 197.217 187.829 197.016 187.863ZM216.811 197.3V197.542L216.82 199.198V199.414H211.558L211.567 198.888L211.61 192.823L211.575 189.942L211.567 187.984L211.558 187.639H215.5C217.11 187.639 218.33 187.708 219.158 187.846C219.992 187.984 220.69 188.231 221.254 188.588C222.013 189.065 222.6 189.729 223.014 190.581C223.33 191.231 223.488 191.912 223.488 192.625C223.488 193.396 223.31 194.132 222.953 194.833C222.528 195.673 221.924 196.32 221.142 196.774C220.366 197.223 219.465 197.447 218.442 197.447C218.062 197.447 217.519 197.398 216.811 197.3ZM216.82 188.226V188.804L216.785 194.566L216.803 196.714C217.257 196.835 217.847 196.895 218.571 196.895C219.221 196.895 219.836 196.766 220.417 196.507C220.998 196.248 221.49 195.883 221.892 195.411C222.577 194.612 222.919 193.683 222.919 192.625C222.919 191.619 222.58 190.707 221.901 189.891C221.418 189.31 220.794 188.887 220.029 188.623C219.264 188.358 218.281 188.226 217.079 188.226H216.82Z" fill="#F7F9FC"/>
<path d="M165.419 120.985H84.313C83.8695 120.985 83.51 121.344 83.51 121.788V122.433C83.51 122.877 83.8695 123.236 84.313 123.236H165.419C165.863 123.236 166.222 122.877 166.222 122.433V121.788C166.222 121.344 165.863 120.985 165.419 120.985Z" fill="#F7F9FC"/>
<path d="M84.8545 122.11H84.0454C83.7497 122.11 83.51 122.35 83.51 122.646V131.424C83.51 131.72 83.7497 131.959 84.0454 131.959H84.8545C85.1501 131.959 85.3898 131.72 85.3898 131.424V122.646C85.3898 122.35 85.1501 122.11 84.8545 122.11Z" fill="#F7F9FC"/>
<path d="M165.687 122.11H164.878C164.582 122.11 164.342 122.35 164.342 122.646V131.424C164.342 131.72 164.582 131.959 164.878 131.959H165.687C165.982 131.959 166.222 131.72 166.222 131.424V122.646C166.222 122.35 165.982 122.11 165.687 122.11Z" fill="#F7F9FC"/>
<path d="M88.3457 122.11H88.0737C87.778 122.11 87.5383 122.35 87.5383 122.646V131.424C87.5383 131.72 87.778 131.959 88.0737 131.959H88.3457C88.6414 131.959 88.8811 131.72 88.8811 131.424V122.646C88.8811 122.35 88.6414 122.11 88.3457 122.11Z" fill="#F7F9FC"/>
<path d="M91.8369 122.11H91.5649C91.2692 122.11 91.0295 122.35 91.0295 122.646V131.424C91.0295 131.72 91.2692 131.959 91.5649 131.959H91.8369C92.1326 131.959 92.3723 131.72 92.3723 131.424V122.646C92.3723 122.35 92.1326 122.11 91.8369 122.11Z" fill="#F7F9FC"/>
<path d="M95.3279 122.11H95.0559C94.7602 122.11 94.5205 122.35 94.5205 122.646V131.424C94.5205 131.72 94.7602 131.959 95.0559 131.959H95.3279C95.6236 131.959 95.8632 131.72 95.8632 131.424V122.646C95.8632 122.35 95.6236 122.11 95.3279 122.11Z" fill="#F7F9FC"/>
<path d="M98.0115 122.646C98.0115 122.35 98.2513 122.11 98.5468 122.11H98.8191C99.1146 122.11 99.3544 122.35 99.3544 122.646V131.424C99.3544 131.72 99.1146 131.96 98.8191 131.96H98.5468C98.2513 131.96 98.0115 131.72 98.0115 131.424V122.646Z" fill="#F7F9FC"/>
<path d="M102.31 122.11H102.038C101.742 122.11 101.503 122.35 101.503 122.646V131.424C101.503 131.72 101.742 131.959 102.038 131.959H102.31C102.606 131.959 102.845 131.72 102.845 131.424V122.646C102.845 122.35 102.606 122.11 102.31 122.11Z" fill="#F7F9FC"/>
<path d="M105.801 122.11H105.529C105.234 122.11 104.994 122.35 104.994 122.646V131.424C104.994 131.72 105.234 131.959 105.529 131.959H105.801C106.097 131.959 106.337 131.72 106.337 131.424V122.646C106.337 122.35 106.097 122.11 105.801 122.11Z" fill="#F7F9FC"/>
<path d="M109.292 122.11H109.02C108.725 122.11 108.485 122.35 108.485 122.646V131.424C108.485 131.72 108.725 131.959 109.02 131.959H109.292C109.588 131.959 109.828 131.72 109.828 131.424V122.646C109.828 122.35 109.588 122.11 109.292 122.11Z" fill="#F7F9FC"/>
<path d="M112.783 122.11H112.511C112.216 122.11 111.976 122.35 111.976 122.646V131.424C111.976 131.72 112.216 131.959 112.511 131.959H112.783C113.079 131.959 113.319 131.72 113.319 131.424V122.646C113.319 122.35 113.079 122.11 112.783 122.11Z" fill="#F7F9FC"/>
<path d="M116.274 122.11H116.002C115.706 122.11 115.467 122.35 115.467 122.646V131.424C115.467 131.72 115.706 131.959 116.002 131.959H116.274C116.57 131.959 116.81 131.72 116.81 131.424V122.646C116.81 122.35 116.57 122.11 116.274 122.11Z" fill="#F7F9FC"/>
<path d="M119.766 122.11H119.494C119.198 122.11 118.958 122.35 118.958 122.646V131.424C118.958 131.72 119.198 131.959 119.494 131.959H119.766C120.062 131.959 120.301 131.72 120.301 131.424V122.646C120.301 122.35 120.062 122.11 119.766 122.11Z" fill="#F7F9FC"/>
<path d="M123.257 122.11H122.985C122.689 122.11 122.449 122.35 122.449 122.646V131.424C122.449 131.72 122.689 131.959 122.985 131.959H123.257C123.552 131.959 123.792 131.72 123.792 131.424V122.646C123.792 122.35 123.552 122.11 123.257 122.11Z" fill="#F7F9FC"/>
<path d="M126.748 122.11H126.476C126.18 122.11 125.94 122.35 125.94 122.646V131.424C125.94 131.72 126.18 131.959 126.476 131.959H126.748C127.043 131.959 127.283 131.72 127.283 131.424V122.646C127.283 122.35 127.043 122.11 126.748 122.11Z" fill="#F7F9FC"/>
<path d="M130.239 122.11H129.967C129.671 122.11 129.431 122.35 129.431 122.646V131.424C129.431 131.72 129.671 131.959 129.967 131.959H130.239C130.534 131.959 130.774 131.72 130.774 131.424V122.646C130.774 122.35 130.534 122.11 130.239 122.11Z" fill="#F7F9FC"/>
<path d="M133.73 122.11H133.458C133.162 122.11 132.923 122.35 132.923 122.646V131.424C132.923 131.72 133.162 131.959 133.458 131.959H133.73C134.026 131.959 134.265 131.72 134.265 131.424V122.646C134.265 122.35 134.026 122.11 133.73 122.11Z" fill="#F7F9FC"/>
<path d="M137.221 122.11H136.949C136.654 122.11 136.414 122.35 136.414 122.646V131.424C136.414 131.72 136.654 131.959 136.949 131.959H137.221C137.517 131.959 137.757 131.72 137.757 131.424V122.646C137.757 122.35 137.517 122.11 137.221 122.11Z" fill="#F7F9FC"/>
<path d="M140.712 122.11H140.44C140.144 122.11 139.905 122.35 139.905 122.646V131.424C139.905 131.72 140.144 131.959 140.44 131.959H140.712C141.008 131.959 141.248 131.72 141.248 131.424V122.646C141.248 122.35 141.008 122.11 140.712 122.11Z" fill="#F7F9FC"/>
<path d="M144.203 122.11H143.931C143.635 122.11 143.396 122.35 143.396 122.646V131.424C143.396 131.72 143.635 131.959 143.931 131.959H144.203C144.499 131.959 144.738 131.72 144.738 131.424V122.646C144.738 122.35 144.499 122.11 144.203 122.11Z" fill="#F7F9FC"/>
<path d="M147.694 122.11H147.422C147.127 122.11 146.887 122.35 146.887 122.646V131.424C146.887 131.72 147.127 131.959 147.422 131.959H147.694C147.99 131.959 148.23 131.72 148.23 131.424V122.646C148.23 122.35 147.99 122.11 147.694 122.11Z" fill="#F7F9FC"/>
<path d="M151.185 122.11H150.913C150.618 122.11 150.378 122.35 150.378 122.646V131.424C150.378 131.72 150.618 131.959 150.913 131.959H151.185C151.481 131.959 151.721 131.72 151.721 131.424V122.646C151.721 122.35 151.481 122.11 151.185 122.11Z" fill="#F7F9FC"/>
<path d="M154.677 122.11H154.404C154.109 122.11 153.869 122.35 153.869 122.646V131.424C153.869 131.72 154.109 131.959 154.404 131.959H154.677C154.972 131.959 155.212 131.72 155.212 131.424V122.646C155.212 122.35 154.972 122.11 154.677 122.11Z" fill="#F7F9FC"/>
<path d="M158.168 122.11H157.896C157.6 122.11 157.36 122.35 157.36 122.646V131.424C157.36 131.72 157.6 131.959 157.896 131.959H158.168C158.463 131.959 158.703 131.72 158.703 131.424V122.646C158.703 122.35 158.463 122.11 158.168 122.11Z" fill="#F7F9FC"/>
<path d="M161.658 122.11H161.386C161.091 122.11 160.851 122.35 160.851 122.646V131.424C160.851 131.72 161.091 131.959 161.386 131.959H161.658C161.954 131.959 162.194 131.72 162.194 131.424V122.646C162.194 122.35 161.954 122.11 161.658 122.11Z" fill="#F7F9FC"/>
<path d="M66.3225 98.3867C63.0612 96.237 59.5583 95.1973 55.775 95.1278C53.9615 95.0946 52.1432 95.1963 50.3329 95.1109C43.1891 94.7736 36.9174 92.2882 31.9017 87.0311C29.6442 84.6651 28.1341 81.862 28.3987 78.3931C28.436 77.9038 28.2085 77.1286 28.9537 77.1C29.6821 77.0719 29.5691 77.8222 29.6136 78.3383C29.8151 80.6748 30.9949 82.5456 32.4922 84.2044C35.3269 87.3453 38.9052 89.2025 42.8984 90.463C45.0321 91.1364 47.2447 91.0708 49.3655 91.6777C50.8291 92.0963 52.2243 91.3152 53.6486 91.0995C60.4741 90.0654 68.1706 93.3763 71.6113 99.5915C72.5648 101.314 73.1925 103.15 73.6604 105.049C74.4133 108.105 76.0719 110.655 77.9748 113.071C78.2301 113.396 78.6574 113.544 79.5549 113.794C79.8809 112.493 79.1127 111.436 78.6892 110.387C75.7691 103.154 71.7101 96.5836 67.0512 90.377C64.3698 86.8046 61.4324 83.4761 58.0422 80.5712C57.7547 80.3247 57.2716 80.1014 57.5122 79.6188C57.7676 79.1068 58.2577 79.3099 58.6946 79.387C62.3665 80.0351 65.5623 81.7337 68.4953 84.0307C69.5555 81.3146 71.2537 79.9577 73.1954 80.2088C75.2828 80.4789 77.3037 82.3301 77.2794 84.3302C77.2448 87.1579 75.5702 88.5946 72.6908 88.6786C73.3488 90.5676 74.7075 91.7023 75.8909 92.8948C77.8969 94.9155 80.1984 96.502 83.0312 97.2488C86.7741 98.2357 90.5668 96.5116 92.0219 92.8102C92.8954 90.588 93.4283 88.2477 93.4419 85.8137C93.4481 84.763 93.0755 84.179 92.0417 83.8674C89.6557 83.1479 88.0772 80.5185 88.5044 78.1437C88.9819 75.4894 91.2433 73.6518 93.8686 73.7848C97.3955 73.9634 99.545 78.016 97.8784 81.3451C96.9322 83.2359 96.9614 83.2086 98.4052 84.782C100.663 87.2423 103.253 89.2447 106.45 90.1795C110.178 91.2692 113.563 90.3561 116.534 87.825C119.482 85.3134 121.385 82.0788 122.849 78.5425C123.204 77.6849 123.452 76.7817 123.752 75.9005C123.896 75.4795 124.002 74.9396 124.513 74.9069C125.067 74.8716 125.281 75.351 125.486 75.8344C126.991 79.3776 128.961 82.6149 131.558 85.467C133.949 88.0921 136.808 90.0031 140.202 90.8048C142.787 91.4156 145.37 90.7903 147.715 89.4399C149.745 88.2704 151.371 86.6515 152.794 84.7936C153.456 83.93 153.513 83.2159 152.79 82.3093C151.034 80.1068 151.32 76.865 152.561 75.2105C153.717 73.667 155.305 72.924 157.015 73.0942C159.484 73.3397 161.343 74.7865 162.105 77.2978C163.118 80.6422 161.785 83.1776 158.442 84.452C158.06 84.5979 157.642 84.7783 157.647 85.2478C157.661 86.5316 157.437 87.8116 157.841 89.1007C158.317 90.6169 158.571 92.1991 159.308 93.6357C161.536 97.9742 165.758 99.0912 169.971 96.8334C173.192 95.1071 175.42 92.3659 177.388 89.0783C175.118 88.1047 173.54 86.5747 173.71 83.9801C173.796 82.658 174.525 81.5333 175.605 80.727C177.66 79.1938 179.965 80.2471 182.121 83.7408C185.054 81.6949 188.02 79.6865 191.78 79.6606C181.356 88.7364 174.87 100.169 170.659 113.173C171.563 113.488 171.817 113.097 172.094 112.756C174.394 109.93 175.872 106.74 176.872 103.195C178.162 98.622 181.11 95.2758 185.328 93.0503C189.731 90.7269 194.362 90.472 199.099 91.3522C200.824 91.6726 202.469 91.3222 204.1 91.1391C209.614 90.5202 214.56 88.4468 218.542 84.4108C220.249 82.6797 221.544 80.6711 221.812 78.1354C221.856 77.7239 221.823 77.0796 222.415 77.1059C223.156 77.1385 222.862 77.8404 222.909 78.2722C223.371 82.5676 221.145 85.637 218.21 88.2396C214.247 91.7545 209.556 93.7125 204.366 94.7102C200.742 95.4069 197.128 94.7787 193.538 95.143C187.01 95.8058 181.478 98.2015 178.661 104.757C178.02 106.251 177.727 107.887 177.072 109.395C176.241 111.307 175.036 112.938 173.601 114.404C172.144 115.893 170.402 116.624 168.281 116.623C139.96 116.608 111.64 116.627 83.319 116.626C81.9624 116.626 80.606 116.898 79.2476 116.41C76.4975 115.424 74.9891 113.172 73.5934 110.83C72.6384 109.228 72.1544 107.408 71.6536 105.613C70.7986 102.549 68.9699 100.22 66.3225 98.3867Z" fill="#F7F9FC"/>
<path d="M144.771 36.7084C145.983 37.3367 145.381 38.2157 144.974 38.8619C144.172 40.136 143.196 41.301 142.29 42.5098C137.887 48.3856 133.487 54.2632 129.075 60.1318C128.685 60.6505 128.293 61.1015 128.785 61.779C131.079 64.9406 133.358 68.1123 135.641 71.2816C135.772 71.463 135.887 71.6555 136.023 71.8627C137.277 71.1686 138.082 70.167 139.315 69.6629C141.997 68.5671 144.078 69.5842 145.995 71.2184C148.959 73.7453 149.01 80.1347 145.545 82.4498C142.124 84.7358 137.362 83.4855 135.959 79.4944C134.666 75.8163 132.52 72.7396 130.555 69.4972C130.002 68.5847 129.321 68.177 128.268 68.229C127.147 68.2841 126.082 68.2967 125.459 66.976C125.152 66.3228 124.299 66.1721 123.832 66.9626C123.38 67.7265 122.741 67.8518 122.015 67.7488C120.718 67.5651 119.913 68.2011 119.254 69.2041C116.748 73.0233 113.949 76.6415 111.702 80.6427C110.294 83.1482 107.657 84.0685 104.939 83.228C103.122 82.6656 102.06 81.1112 101.721 79.4147C101.081 76.2226 101.405 73.1449 104.298 70.7028C106.311 69.0034 109.827 69.0526 111.565 71.1948C111.861 71.5599 112.041 72.0573 112.684 72.2867C114.329 70.0088 115.991 67.7132 117.645 65.4114C118.346 64.436 118.983 63.4105 119.733 62.475C120.422 61.615 120.46 60.9086 119.782 59.9819C115.184 53.6987 110.633 47.3815 106.069 41.0734C105.288 39.9939 104.491 38.9248 103.759 37.8129C103.441 37.33 103.187 36.6477 103.778 36.2518C104.326 35.8853 104.758 36.4357 105.113 36.8286C110.272 42.5304 115.423 48.2405 120.585 53.9393C121.568 55.025 122.589 56.0767 123.603 57.1343C124.542 58.1145 125.088 58.1333 126.031 57.103C129.971 52.8022 133.856 48.4501 137.829 44.1798C140.125 41.711 142.179 39.0171 144.771 36.7084ZM142.167 80.6639C142.338 80.6141 142.506 80.5536 142.68 80.5161C144.941 80.0258 146.153 78.1314 145.74 75.7138C145.477 74.1773 143.625 72.2487 141.266 72.5814C139.493 72.8314 137.772 75.0231 137.92 76.94C138.064 78.8175 139.594 80.2383 142.167 80.6639ZM107.2 80.4176C109.218 80.056 110.729 78.4663 110.952 76.4686C111.097 75.1752 109.846 72.9674 108.773 72.6218C107.238 72.128 105.93 72.6874 104.922 74.2263C103.765 75.9937 103.916 79.432 107.2 80.4176ZM123.74 61.9921C123.713 62.4538 123.68 62.9774 124.355 62.8848C124.738 62.8323 124.962 62.4391 124.837 62.062C124.651 61.5033 124.257 61.4458 123.74 61.9921Z" fill="#F7F9FC"/>
<path d="M191.126 98.4144C195.784 98.0611 200.352 98.1861 204.858 97.7838C210.241 97.3031 215.359 95.5739 219.802 92.2852C220.629 91.6727 221.316 90.9144 221.969 90.1175C222.262 89.7602 222.424 89.2139 223.117 89.1611C223.801 89.8381 223.6 90.6665 223.342 91.4543C222.232 94.8426 219.586 96.7757 216.611 98.3066C211.63 100.869 206.266 101.464 200.792 100.853C198.414 100.587 196.06 99.9474 193.654 100.107C190.167 100.339 186.609 100.365 183.504 102.37C183.38 102.45 183.178 102.407 182.96 102.426C182.625 101.384 183.44 101.019 183.991 100.629C186.081 99.1514 188.433 98.4284 191.126 98.4144Z" fill="#F7F9FC"/>
<path d="M65.0302 99.7831C65.8849 100.278 66.6595 100.724 67.2696 101.385C67.4992 101.634 67.8555 101.922 67.5742 102.305C67.2886 102.693 66.9452 102.451 66.6363 102.258C64.5813 100.971 62.267 100.764 59.9283 100.386C55.6813 99.7012 51.6073 101.013 47.4559 101.029C40.4915 101.056 34.0169 99.5435 29.4547 93.6338C28.5055 92.4043 27.92 90.9602 28.4724 89.3135C29.103 89.2575 29.309 89.6946 29.5592 90.0333C31.7125 92.9458 34.7779 94.485 38.0382 95.7789C40.1507 96.6173 42.3098 97.286 44.5452 97.605C47.4784 98.0234 50.411 98.351 53.4053 98.3542C56.8021 98.358 60.2728 97.995 63.6024 99.1739C64.0674 99.3385 64.4871 99.5682 65.0302 99.7831Z" fill="#F7F9FC"/>
<path d="M212.017 104.443C213.285 104.094 214.394 103.659 215.431 103.04C215.757 102.845 216.118 102.491 216.501 102.9C216.88 103.303 216.494 103.685 216.311 103.984C215.009 106.103 212.874 106.942 210.636 107.637C209.106 108.113 207.542 107.878 205.994 107.976C201.845 108.24 197.911 107.399 193.992 106.05C190.72 104.923 187.227 105.261 183.808 105.285C183.338 105.288 182.824 105.465 182.327 104.945C183.157 104.052 184.352 103.94 185.347 103.847C187.719 103.623 190.05 103.008 192.478 103.202C194.288 103.346 196.073 103.674 197.848 103.949C201.087 104.449 204.283 105.177 207.59 105.108C209.063 105.077 210.425 104.369 212.017 104.443Z" fill="#F7F9FC"/>
<path d="M49.7026 107.944C47.2614 107.951 44.9388 108.066 42.6319 107.925C40.1891 107.776 37.9548 106.894 36.136 105.197C35.5481 104.648 34.8776 104.042 35.0896 102.989C36.1649 102.736 36.7543 103.697 37.5994 103.969C41.2906 105.157 44.9706 105.376 48.8268 104.767C50.9594 104.43 53.0489 103.733 55.2441 103.756C56.7961 103.773 58.2493 102.995 59.8478 103.216C62.2869 103.554 64.7359 103.823 67.1289 104.425C67.4116 104.496 67.7448 104.571 67.9226 104.909C67.8591 105.456 67.4325 105.469 67.0411 105.406C65.5777 105.171 64.1031 105.245 62.6416 105.304C59.8106 105.419 57.0236 105.892 54.335 106.804C52.8583 107.305 51.3523 107.648 49.7026 107.944Z" fill="#F7F9FC"/>
<path d="M203.826 111.226C205.301 111.013 206.61 110.392 208.195 110.546C207.665 111.816 206.633 112.095 205.736 112.469C204.963 112.792 204.12 113.044 203.289 113.12C199.649 113.454 195.978 113.795 192.628 111.826C189.564 110.026 186.333 108.771 182.768 108.472C182.334 108.435 181.938 108.318 181.939 107.8C181.94 107.2 182.459 107.335 182.825 107.242C187.127 106.142 191.084 107.177 194.845 109.242C197.621 110.766 200.626 111.144 203.826 111.226Z" fill="#F7F9FC"/>
<path d="M50.0761 113.312C47.4992 113.045 44.9889 112.935 43.1494 110.861C43.5871 110.421 43.9021 110.434 44.2014 110.54C48.6925 112.143 52.8816 111.116 56.8296 108.892C60.3163 106.928 63.9781 106.764 67.7837 107.282C68.1558 107.333 68.5118 107.427 68.5217 107.89C68.5321 108.381 68.1472 108.428 67.7853 108.474C63.9771 108.949 60.5704 110.441 57.2573 112.335C55.118 113.558 52.6158 113.389 50.0761 113.312Z" fill="#F7F9FC"/>
<path d="M183.093 111.057C184.766 111.786 186.371 112.418 187.925 113.16C190.818 114.542 193.941 114.49 197.022 114.725C197.451 114.758 197.937 114.609 198.201 115.181C198.035 115.771 197.565 115.962 197.002 115.978C193.673 116.069 190.346 116.297 187.041 115.566C184.467 114.995 182.414 113.599 180.555 111.827C180.256 111.541 180.085 111.201 180.022 110.781C179.897 109.95 180.31 109.809 180.952 110.061C181.652 110.336 182.32 110.689 183.093 111.057Z" fill="#F7F9FC"/>
<path d="M67.5358 113.879C63.5983 116.327 54.2885 117.152 52.7068 115.012C55.8247 114.545 58.9635 114.819 61.8225 113.583C64.6066 112.38 67.3827 111.159 70.1716 109.941C70.6079 111.24 70.2166 111.808 67.5358 113.879Z" fill="#F7F9FC"/>
<path d="M187.228 118.268C184.856 119.033 182.763 118.443 180.719 117.456C178.925 116.59 178.786 114.718 178.108 113.176C178.011 112.956 178.111 112.738 178.367 112.649C178.79 112.502 178.899 112.871 179.068 113.105C180.095 114.518 181.21 115.826 182.953 116.39C184.207 116.795 185.436 117.313 186.807 117.164C187.147 117.127 187.539 117.127 187.72 117.54C187.894 117.938 187.642 118.105 187.228 118.268Z" fill="#F7F9FC"/>
<path d="M63.3118 118.327C62.1707 117.297 63.3423 117.311 63.7751 117.222C64.7182 117.027 65.6738 117.031 66.6422 116.772C68.5885 116.25 69.947 115.124 71.0217 113.522C71.2406 113.196 71.4267 112.835 72.0903 112.605C72.1855 114.346 71.5886 115.876 70.5123 116.838C68.5275 118.612 66.044 119.101 63.3118 118.327Z" fill="#F7F9FC"/>
<path d="M177.826 117.155C178.402 117.621 179.63 117.747 179.194 118.526C178.768 119.285 177.748 118.684 177.062 118.359C176.025 117.869 175.489 116.966 175.324 115.839C175.27 115.469 175.266 115.101 175.682 114.94C176.118 114.77 176.415 115.135 176.54 115.4C176.843 116.05 177.141 116.678 177.826 117.155Z" fill="#F7F9FC"/>
<path d="M72.2407 118.81C71.7257 119.117 71.31 119.238 71.0591 118.654C70.8637 118.198 71.2203 118.03 71.5391 117.854C72.4896 117.33 73.2908 116.677 73.6671 115.597C73.7838 115.262 74.0432 114.994 74.4656 115.035C75.1766 116.752 74.4201 118.06 72.2407 118.81Z" fill="#F7F9FC"/>
<path d="M173.74 117.234C174.072 117.68 174.227 118.065 173.949 118.507C172.851 118.125 172.596 117.651 172.81 116.403C173.45 116.252 173.469 116.818 173.74 117.234Z" fill="#F7F9FC"/>
<path d="M76.2126 117.725C76.5641 117.242 76.5049 116.591 77.1179 116.398C77.5258 117.259 77.4022 118.021 76.715 118.38C76.0606 118.721 75.9273 118.404 76.2126 117.725Z" fill="#F7F9FC"/>
</g>
</svg>
