<svg width="28" height="28" viewBox="0 0 28 28" fill="none" xmlns="http://www.w3.org/2000/svg">
<g clip-path="url(#clip0_183_236)">
<path d="M13.1578 1.2C10.6859 1.2 9.42812 1.4704 8.27031 2.104C7.30472 2.62424 6.51586 3.43204 6.00781 4.4208C5.38906 5.6048 5.125 6.8944 5.125 9.424V18.5728C5.125 21.104 5.38906 22.392 6.00781 23.5776C6.53438 24.5856 7.28594 25.3552 8.27031 25.8944C9.42656 26.528 10.6859 26.7984 13.1578 26.7984H15.8422C18.3141 26.7984 19.5719 26.528 20.7297 25.8944C21.6953 25.3742 22.4841 24.5664 22.9922 23.5776C23.6109 22.3936 23.875 21.104 23.875 18.5728V9.424C23.875 6.8928 23.6109 5.6048 22.9922 4.4192C22.4841 3.43044 21.6953 2.62264 20.7297 2.1024C19.5734 1.4704 18.3141 1.2 15.8437 1.2H13.1563H13.1578ZM13.1578 -2H15.8422C18.9891 -2 20.6766 -1.5552 22.2047 -0.7184C23.7145 0.0999824 24.9492 1.36431 25.7484 2.9104C26.5656 4.4752 27 6.2032 27 9.4256V18.5744C27 21.7968 26.5656 23.5248 25.7484 25.0896C24.9492 26.6357 23.7145 27.9 22.2047 28.7184C20.6766 29.5552 18.9891 30 15.8422 30H13.1563C10.0094 30 8.32187 29.5552 6.79375 28.7184C5.28389 27.9 4.0492 26.6357 3.25 25.0896C2.43438 23.5248 2 21.7968 2 18.5744V9.424C2 6.2016 2.43438 4.4736 3.25156 2.9088C4.05143 1.36307 5.28667 0.0993007 6.79688 -0.7184C8.32344 -1.5552 10.0109 -2 13.1578 -2ZM12.9375 4.4H16.0625V12.4H12.9375V4.4Z" fill="url(#paint0_linear_183_236)"/>
</g>
<defs>
<linearGradient id="paint0_linear_183_236" x1="14.5" y1="-2" x2="14.5" y2="30" gradientUnits="userSpaceOnUse">
<stop stop-color="#D4203B"/>
<stop offset="1" stop-color="#E83752" stop-opacity="0"/>
</linearGradient>
<clipPath id="clip0_183_236">
<rect width="28" height="28" fill="white"/>
</clipPath>
</defs>
</svg>
